<?xml version="1.0" encoding="UTF-8" standalone="no"?>
<!-- Created with Inkscape (http://www.inkscape.org/) -->

<svg
   xmlns:dc="http://purl.org/dc/elements/1.1/"
   xmlns:cc="http://creativecommons.org/ns#"
   xmlns:rdf="http://www.w3.org/1999/02/22-rdf-syntax-ns#"
   xmlns:svg="http://www.w3.org/2000/svg"
   xmlns="http://www.w3.org/2000/svg"
   xmlns:xlink="http://www.w3.org/1999/xlink"
   xmlns:sodipodi="http://sodipodi.sourceforge.net/DTD/sodipodi-0.dtd"
   xmlns:inkscape="http://www.inkscape.org/namespaces/inkscape"
   sodipodi:docname="folie_template_rev4_lb.svg"
   inkscape:version="0.48.1 r9760"
   version="1.1"
   id="svg10646"
   height="1200px"
   width="1600px">
  <sodipodi:namedview
     id="base"
     pagecolor="#ffffff"
     bordercolor="#666666"
     borderopacity="1.0"
     inkscape:pageopacity="0.0"
     inkscape:pageshadow="2"
     inkscape:zoom="0.86974134"
     inkscape:cx="338.10539"
     inkscape:cy="1057.0531"
     inkscape:current-layer="layer1"
     inkscape:document-units="px"
     showgrid="false"
     inkscape:window-width="1438"
     inkscape:window-height="879"
     inkscape:window-x="0"
     inkscape:window-y="19"
     inkscape:window-maximized="1"
     showguides="true"
     inkscape:guide-bbox="true" />
  <defs
     id="defs10648">
    <linearGradient
       id="linearGradient12307"
       inkscape:collect="always">
      <stop
         id="stop12309"
         offset="0"
         style="stop-color:#4d3227;stop-opacity:1;" />
      <stop
         id="stop12311"
         offset="1"
         style="stop-color:#4d3227;stop-opacity:0;" />
    </linearGradient>
    <linearGradient
       id="linearGradient12291">
      <stop
         id="stop12293"
         offset="0"
         style="stop-color:#f9f6dc;stop-opacity:1;" />
      <stop
         id="stop12295"
         offset="1"
         style="stop-color:#f9f6dc;stop-opacity:0;" />
    </linearGradient>
    <filter
       height="1.4107541"
       y="-0.20537704"
       width="1.360518"
       x="-0.180259"
       id="filter12214"
       inkscape:collect="always">
      <feGaussianBlur
         id="feGaussianBlur12216"
         stdDeviation="20.637853"
         inkscape:collect="always" />
    </filter>
    <linearGradient
       gradientTransform="matrix(1,0,0,0.37500002,-8.2862989,681.37479)"
       gradientUnits="userSpaceOnUse"
       y2="1202.3169"
       x2="715.15515"
       y1="875.59283"
       x1="715.15515"
       id="linearGradient12313"
       xlink:href="#linearGradient12307"
       inkscape:collect="always" />
    <linearGradient
       gradientTransform="matrix(1,0,0,0.37500002,-8.2862989,681.37479)"
       gradientUnits="userSpaceOnUse"
       y2="1202.3169"
       x2="715.15515"
       y1="875.59283"
       x1="715.15515"
       id="linearGradient12313-0"
       xlink:href="#linearGradient12307-8"
       inkscape:collect="always" />
    <linearGradient
       id="linearGradient12307-8"
       inkscape:collect="always">
      <stop
         id="stop12309-9"
         offset="0"
         style="stop-color:#4d3227;stop-opacity:1;" />
      <stop
         id="stop12311-0"
         offset="1"
         style="stop-color:#4d3227;stop-opacity:0;" />
    </linearGradient>
    <linearGradient
       inkscape:collect="always"
       xlink:href="#linearGradient12307-8-4"
       id="linearGradient12347-3"
       gradientUnits="userSpaceOnUse"
       gradientTransform="matrix(1,0,0,0.37500002,-1609.6741,-759.11211)"
       x1="715.15515"
       y1="875.59283"
       x2="715.15515"
       y2="1202.3169" />
    <linearGradient
       id="linearGradient12307-8-4"
       inkscape:collect="always">
      <stop
         id="stop12309-9-8"
         offset="0"
         style="stop-color:#4d3227;stop-opacity:1;" />
      <stop
         id="stop12311-0-5"
         offset="1"
         style="stop-color:#4d3227;stop-opacity:0;" />
    </linearGradient>
    <linearGradient
       inkscape:collect="always"
       xlink:href="#linearGradient12307-8-4"
       id="linearGradient12400"
       gradientUnits="userSpaceOnUse"
       gradientTransform="matrix(0.82682749,0,0,0.37500002,269.07718,-188.52031)"
       x1="715.15515"
       y1="875.59283"
       x2="715.15515"
       y2="1202.3169" />
    <linearGradient
       y2="1157.3529"
       x2="716.90955"
       y1="530.37134"
       x1="716.90955"
       gradientTransform="matrix(1,0,0,0.26771285,-1609.6741,-622.91493)"
       gradientUnits="userSpaceOnUse"
       id="linearGradient14449"
       xlink:href="#linearGradient12307-8"
       inkscape:collect="always" />
  </defs>
  <metadata
     id="metadata10651">
    <rdf:RDF>
      <cc:Work
         rdf:about="">
        <dc:format>image/svg+xml</dc:format>
        <dc:type
           rdf:resource="http://purl.org/dc/dcmitype/StillImage" />
        <dc:title></dc:title>
      </cc:Work>
    </rdf:RDF>
  </metadata>
  <g
     inkscape:groupmode="layer"
     inkscape:label="Layer 1"
     id="layer1">
    <image
       width="1600"
       height="1200"
       xlink:href="file:///home/jaseg/projects/rgbulb/klq/svg/bg_rev5.png"
       id="image11256"
       x="0"
       y="0" />
    <path
       inkscape:connector-curvature="0"
       id="rect7238-3"
       d="m 274.78125,-4.0849067e-5 c 0,62.421296849067 0,124.842580849067 0,187.263880849067 441.73958,0 883.47915,0 1325.21875,0 0,-62.4213 0,-124.842584 0,-187.263880849067 -441.7396,0 -883.47917,0 -1325.21875,0 z"
       style="color:#000000;fill:#f9f6dc;fill-opacity:0.41078839;fill-rule:nonzero;stroke:none;stroke-width:5.31496047999999988;marker:none;visibility:visible;display:inline;overflow:visible;enable-background:accumulate" />
    <flowRoot
       transform="matrix(2.3221221,0,0,2.3221221,-373.22318,-5.247449)"
       style="font-size:40px;font-style:normal;font-variant:normal;font-weight:normal;font-stretch:normal;line-height:125%;letter-spacing:0px;word-spacing:0px;fill:#4d3227;fill-opacity:1;stroke:none;font-family:Futura Bk BT;-inkscape-font-specification:Futura Bk BT"
       id="flowRoot7728"
       xml:space="preserve"><flowRegion
         id="flowRegion7730"><rect
           style="fill:#4d3227;fill-opacity:1"
           y="14.414414"
           x="322.52252"
           height="131.53152"
           width="1234.2343"
           id="rect7732" /></flowRegion><flowPara
         id="flowPara7734">Lorem ipsum dolor sit</flowPara></flowRoot>    <rect
       ry="0"
       rx="0"
       y="340.44324"
       x="0"
       height="736.60516"
       width="1600"
       id="rect12287"
       style="color:#000000;fill:#f9f6dc;fill-opacity:0.41078839;fill-rule:nonzero;stroke:none;stroke-width:5.31496047999999988;marker:none;visibility:visible;display:inline;overflow:visible;enable-background:accumulate" />
    <g
       transform="matrix(1.0847844,0,0,1.0847844,-551.17251,-77.733067)"
       id="g7881">
      <g
         id="g7867">
        <path
           transform="matrix(0.72727274,0,0,0.72727274,423.58306,227.62333)"
           d="m 326.12613,396.39639 c 0,10.94619 -8.87364,19.81982 -19.81983,19.81982 -10.94618,0 -19.81982,-8.87363 -19.81982,-19.81982 0,-10.94618 8.87364,-19.81982 19.81982,-19.81982 10.94619,0 19.81983,8.87364 19.81983,19.81982 z"
           sodipodi:ry="19.81982"
           sodipodi:rx="19.81982"
           sodipodi:cy="396.39639"
           sodipodi:cx="306.3063"
           id="path7736"
           style="color:#000000;fill:#4d3227;fill-opacity:1;fill-rule:nonzero;stroke:none;stroke-width:5.31496048;marker:none;visibility:visible;display:inline;overflow:visible;enable-background:accumulate"
           sodipodi:type="arc" />
        <flowRoot
           transform="matrix(1.8137179,0,0,1.8137179,95.42574,436.49266)"
           style="font-size:40px;font-style:normal;font-variant:normal;font-weight:normal;font-stretch:normal;line-height:125%;letter-spacing:0px;word-spacing:0px;fill:#4d3227;fill-opacity:1;stroke:none;font-family:Futura Bk BT;-inkscape-font-specification:Futura Bk BT"
           id="flowRoot7728-0"
           xml:space="preserve"><flowRegion
             id="flowRegion7730-1"><rect
               style="fill:#4d3227;fill-opacity:1"
               y="14.414414"
               x="322.52252"
               height="131.53152"
               width="1234.2343"
               id="rect7732-3" /></flowRegion><flowPara
             id="flowPara7734-7">Lorem ipsum dolor sit</flowPara></flowRoot>      </g>
      <g
         id="g7874">
        <path
           transform="matrix(0.72727274,0,0,0.72727274,423.58305,403.35927)"
           d="m 326.12613,396.39639 c 0,10.94619 -8.87364,19.81982 -19.81983,19.81982 -10.94618,0 -19.81982,-8.87363 -19.81982,-19.81982 0,-10.94618 8.87364,-19.81982 19.81982,-19.81982 10.94619,0 19.81983,8.87364 19.81983,19.81982 z"
           sodipodi:ry="19.81982"
           sodipodi:rx="19.81982"
           sodipodi:cy="396.39639"
           sodipodi:cx="306.3063"
           id="path7736-7"
           style="color:#000000;fill:#4d3227;fill-opacity:1;fill-rule:nonzero;stroke:none;stroke-width:5.31496048;marker:none;visibility:visible;display:inline;overflow:visible;enable-background:accumulate"
           sodipodi:type="arc" />
        <flowRoot
           transform="matrix(1.8137179,0,0,1.8137179,95.42573,612.2286)"
           style="font-size:40px;font-style:normal;font-variant:normal;font-weight:normal;font-stretch:normal;line-height:125%;letter-spacing:0px;word-spacing:0px;fill:#4d3227;fill-opacity:1;stroke:none;font-family:Futura Bk BT;-inkscape-font-specification:Futura Bk BT"
           id="flowRoot7728-0-2"
           xml:space="preserve"><flowRegion
             id="flowRegion7730-1-6"><rect
               style="fill:#4d3227;fill-opacity:1"
               y="14.414414"
               x="322.52252"
               height="131.53152"
               width="1234.2343"
               id="rect7732-3-4" /></flowRegion><flowPara
             id="flowPara7734-7-5">Adipiscing elit</flowPara></flowRoot>      </g>
      <g
         id="g7860">
        <path
           transform="matrix(0.72727274,0,0,0.72727274,423.58306,308.77842)"
           d="m 326.12613,396.39639 c 0,10.94619 -8.87364,19.81982 -19.81983,19.81982 -10.94618,0 -19.81982,-8.87363 -19.81982,-19.81982 0,-10.94618 8.87364,-19.81982 19.81982,-19.81982 10.94619,0 19.81983,8.87364 19.81983,19.81982 z"
           sodipodi:ry="19.81982"
           sodipodi:rx="19.81982"
           sodipodi:cy="396.39639"
           sodipodi:cx="306.3063"
           id="path7736-2"
           style="color:#000000;fill:#4d3227;fill-opacity:1;fill-rule:nonzero;stroke:none;stroke-width:5.31496048;marker:none;visibility:visible;display:inline;overflow:visible;enable-background:accumulate"
           sodipodi:type="arc" />
        <flowRoot
           transform="matrix(1.8137179,0,0,1.8137179,95.42574,524.36063)"
           style="font-size:40px;font-style:normal;font-variant:normal;font-weight:normal;font-stretch:normal;line-height:125%;letter-spacing:0px;word-spacing:0px;fill:#4d3227;fill-opacity:1;stroke:none;font-family:Futura Bk BT;-inkscape-font-specification:Futura Bk BT"
           id="flowRoot7728-0-0"
           xml:space="preserve"><flowRegion
             id="flowRegion7730-1-2"><rect
               style="fill:#4d3227;fill-opacity:1"
               y="14.414414"
               x="322.52252"
               height="131.53152"
               width="1234.2343"
               id="rect7732-3-9" /></flowRegion><flowPara
             id="flowPara7734-7-0">Amet consectetur</flowPara></flowRoot>      </g>
    </g>
    <rect
       y="207.1532"
       x="274.78125"
       height="55.188824"
       width="1325.2188"
       id="rect12289-1-8"
       style="color:#000000;fill:url(#linearGradient12400);fill-opacity:1;fill-rule:nonzero;stroke:none;stroke-width:5.31496047999999988;marker:none;visibility:visible;display:inline;overflow:visible;enable-background:accumulate;opacity:0.77405858" />
    <rect
       y="1077.0483"
       x="-1.3876953"
       height="55.188824"
       width="1602.7754"
       id="rect12289"
       style="color:#000000;fill:url(#linearGradient12313);fill-opacity:1;fill-rule:nonzero;stroke:none;stroke-width:5.31496047999999988;marker:none;visibility:visible;display:inline;overflow:visible;enable-background:accumulate;opacity:0.77405858" />
    <rect
       transform="scale(-1,-1)"
       y="-340.44324"
       x="-1602.7754"
       height="39.399349"
       width="1602.7754"
       id="rect12289-1"
       style="color:#000000;fill:url(#linearGradient14449);fill-opacity:1;fill-rule:nonzero;stroke:none;stroke-width:5.31496047999999988;marker:none;visibility:visible;display:inline;overflow:visible;enable-background:accumulate;opacity:0.33472803" />
    <g
       style="fill:#4d3227;fill-opacity:1"
       transform="translate(8.884253,974.73706)"
       id="g13555">
      <flowRoot
         xml:space="preserve"
         id="flowRoot12528"
         style="font-size:40px;font-style:normal;font-variant:normal;font-weight:normal;font-stretch:normal;line-height:125%;letter-spacing:0px;word-spacing:0px;fill:#4d3227;fill-opacity:1;stroke:none;font-family:Futura Bk BT;-inkscape-font-specification:Futura Bk BT"
         transform="matrix(0.77771651,0,0,0.77771651,790.15789,68.56118)"><flowRegion
           id="flowRegion12530"><rect
             id="rect12532"
             width="868.07416"
             height="193.16087"
             x="427.71338"
             y="143.36401"
             style="fill:#4d3227;fill-opacity:1" /></flowRegion><flowPara
           id="flowPara12534">Jan Sebastian Götte im Juni 2011</flowPara></flowRoot>      <g
         id="g5930"
         transform="matrix(0.96319308,0,0,0.96319308,505.61823,-799.28625)"
         style="fill:#4d3227;fill-opacity:1">
        <g
           transform="matrix(0.39152482,0,0,0.39152482,578.97172,1024.7633)"
           id="layer3"
           inkscape:label="Dessin"
           style="fill:#4d3227;fill-opacity:1;display:inline">
          <path
             style="fill:#4d3227;fill-opacity:1;fill-rule:nonzero;stroke:none"
             d="M 31.1875,0 C 13.904525,0.43835438 0,14.612004 0,32 0,49.663996 14.336004,64 32,64 49.663996,64 64,49.663996 64,32 64,14.336004 49.663996,0 32,0 31.724,0 31.461833,-0.00695801 31.1875,0 z M 31.15625,5.5 C 31.439783,5.49101 31.714297,5.5 32,5.5 46.628003,5.4999998 58.5,17.371998 58.5,32 58.499998,46.628001 46.628002,58.5 32,58.5 17.371999,58.499999 5.5,46.628002 5.5,32 5.4999999,17.657701 16.922915,5.9512829 31.15625,5.5 z"
             id="path1334"
             inkscape:connector-curvature="0" />
          <g
             id="g6525"
             style="fill:#4d3227;fill-opacity:1">
            <path
               transform="translate(-0.0625,0.185547)"
               d="m 36.6875,15.75 c 0,2.554317 -2.070683,4.625 -4.625,4.625 -2.554317,0 -4.625,-2.070683 -4.625,-4.625 0,-2.554317 2.070683,-4.625 4.625,-4.625 2.554317,0 4.625,2.070683 4.625,4.625 z"
               sodipodi:ry="4.625"
               sodipodi:rx="4.625"
               sodipodi:cy="15.75"
               sodipodi:cx="32.0625"
               id="path2838"
               style="fill:#4d3227;fill-opacity:1;fill-rule:evenodd;stroke:none"
               sodipodi:type="arc" />
            <path
               sodipodi:nodetypes="ccccssccssccc"
               d="m 27.215125,52.689453 9.56975,0 0,-15.378905 2.893008,0 c 0,0 -0.0011,-10.990367 0,-12.720111 -0.0028,-0.456306 0.04119,-1.365057 -0.620739,-2.026989 -0.661932,-0.661932 -1.555399,-0.621804 -2.02699,-0.620739 -0.47159,0.0011 -9.588717,0.0011 -10.060308,0 -0.471591,-0.0011 -1.365057,-0.04119 -2.026989,0.620739 -0.661933,0.661932 -0.617898,1.570683 -0.620739,2.026989 0.0011,1.729744 0,12.720111 0,12.720111 l 2.893007,0 0,15.378905 z"
               style="fill:#4d3227;fill-opacity:1;fill-rule:evenodd;stroke:none"
               id="path3572"
               inkscape:connector-curvature="0" />
          </g>
        </g>
        <g
           transform="matrix(0.39152482,0,0,0.39152482,607.78434,1024.7633)"
           id="g5577"
           style="fill:#4d3227;fill-opacity:1">
          <path
             style="fill:#4d3227;fill-opacity:1;fill-rule:nonzero;stroke:none"
             d="M 31.1875,0 C 13.904525,0.43835438 0,14.612004 0,32 0,49.663996 14.336004,64 32,64 49.663996,64 64,49.663996 64,32 64,14.336004 49.663996,0 32,0 31.724,0 31.461833,-0.00695801 31.1875,0 z M 31.15625,5.5 C 31.439783,5.49101 31.714297,5.5 32,5.5 46.628003,5.4999998 58.5,17.371998 58.5,32 58.499998,46.628001 46.628002,58.5 32,58.5 17.371999,58.499999 5.5,46.628002 5.5,32 5.4999999,17.657701 16.922915,5.9512829 31.15625,5.5 z"
             id="path1334-2"
             inkscape:connector-curvature="0" />
          <path
             style="fill:#4d3227;fill-opacity:1;fill-rule:nonzero;stroke:none"
             d="m 18.115779,26.784547 -2.740778,0 6.21875,6.96875 6.21875,-6.96875 -2.243852,0 c 0.486099,-3.3998 3.476871,-5.586425 6.931352,-5.3125 0.136556,0.01083 0.267854,0 0.40625,0 5.62743,0 7.84682,4.255865 8.03125,10.53125 0.19247,6.549199 -3.60349,10.620376 -8.03125,10.53125 -4.673386,-0.09221 -6.444049,-2.32751 -7.125,-5.71875 l -8.34375,0 c 1.373177,7.811231 7.123855,12.392036 15.28125,12.40625 9.23458,0.01625 15.906248,-7.709347 15.906248,-17.21875 0,-10.154893 -6.669368,-17.21875 -15.906248,-17.21875 -0.274244,0 -0.541652,-0.01489 -0.8125,0 -0.0656,0.0036 -0.12197,-0.0011 -0.1875,0 -5.772209,0.09597 -13.602929,4.139742 -13.602972,12 z"
             id="path2371"
             sodipodi:nodetypes="cccccssssccsssssc"
             inkscape:connector-curvature="0" />
        </g>
        <g
           transform="matrix(0.44744999,0,0,0.4468506,394.45738,527.95119)"
           id="g5808"
           style="fill:#4d3227;fill-opacity:1">
          <path
             d="m 375.93753,1111.8056 c -7.68196,0 -14.44196,2.8429 -19.66591,8.143 -5.37702,5.4549 -8.29603,12.5219 -8.29603,19.8968 0,7.4511 2.84203,14.365 8.21994,19.7429 5.37702,5.377 12.36795,8.296 19.742,8.296 7.37406,0 14.51895,-2.919 20.04993,-8.373 5.22395,-5.1469 7.989,-11.9839 7.989,-19.6659 0,-7.605 -2.76505,-14.5189 -8.06598,-19.8199 -5.37703,-5.377 -12.29098,-8.2199 -19.97295,-8.2199 z m 0.077,5.0709 c 6.29901,0 11.90697,2.381 16.28592,6.76 4.30109,4.302 6.60603,9.9869 6.60603,16.2089 0,6.299 -2.22796,11.83 -6.52993,16.0559 -4.53292,4.455 -10.37093,6.837 -16.3629,6.837 -6.06895,0 -11.75389,-2.3811 -16.13196,-6.76 -4.37895,-4.3799 -6.83697,-10.1409 -6.83697,-16.1329 0,-6.0689 2.45802,-11.83 6.83697,-16.2859 4.30197,-4.3781 9.83384,-6.683 16.13284,-6.683 z"
             style="fill:#4d3227;fill-opacity:1;fill-rule:evenodd"
             id="path49-4"
             inkscape:connector-curvature="0" />
          <path
             d="m 375.65262,1135.186 c -1.58382,-2.8881 -4.28604,-4.0374 -7.42271,-4.0374 -4.56565,0 -8.19959,3.2295 -8.19959,8.6968 0,5.5593 3.41627,8.6969 8.35531,8.6969 3.16853,0 5.86987,-1.7396 7.36078,-4.379 l -3.47909,-1.7705 c -0.77687,1.8634 -1.95633,2.4226 -3.44724,2.4226 -2.57836,0 -3.75781,-2.143 -3.75781,-4.9691 0,-2.8261 0.99364,-4.97 3.75781,-4.97 0.74501,0 2.23593,0.4044 3.1057,2.2669 l 3.72684,-1.9572 z"
             style="fill:#4d3227;fill-opacity:1;fill-rule:evenodd"
             id="path51-2"
             inkscape:connector-curvature="0" />
          <path
             d="m 391.82882,1135.186 c -1.5847,-2.8881 -4.28604,-4.0374 -7.42271,-4.0374 -4.56565,0 -8.20048,3.2295 -8.20048,8.6968 0,5.5593 3.41716,8.6969 8.35532,8.6969 3.16852,0 5.86987,-1.7396 7.36078,-4.379 l -3.4791,-1.7705 c -0.77598,1.8634 -1.95632,2.4226 -3.44724,2.4226 -2.57747,0 -3.75869,-2.143 -3.75869,-4.9691 0,-2.8261 0.99453,-4.97 3.75869,-4.97 0.74502,0 2.23593,0.4044 3.10659,2.2669 l 3.72684,-1.9572 z"
             style="fill:#4d3227;fill-opacity:1;fill-rule:evenodd"
             id="path53-2"
             inkscape:connector-curvature="0" />
        </g>
      </g>
    </g>
    <rect
       y="-598.94373"
       x="178.86177"
       height="189.18761"
       width="221.1252"
       id="rect6373"
       style="color:#000000;fill:#52753f;fill-opacity:1;fill-rule:nonzero;stroke:none;stroke-width:5.31496048;marker:none;visibility:visible;display:inline;overflow:visible;enable-background:accumulate" />
    <g
       style="fill:#f1edcd;fill-opacity:1"
       transform="translate(-1565.8881,-701.78741)"
       id="g9453">
      <path
         sodipodi:nodetypes="ccscccccccscccscssccccssccccccccccccccccccccccc"
         inkscape:connector-curvature="0"
         d="m 1873.0625,202.25 14.0938,0 5.3125,0 c 6.7529,6e-5 11.7349,0.31137 14.9375,0.9375 3.2023,0.62665 6.032,1.66311 8.4688,3.125 4.1074,2.29751 7.248,5.51757 9.4062,9.625 2.1581,4.10755 3.2187,8.93056 3.2188,14.5 -10e-5,4.80367 -0.9088,9.18808 -2.7188,13.15625 -1.8102,3.96831 -4.2734,7.08471 -7.4062,9.3125 -2.5759,1.8797 -6.0276,3.20298 -10.3438,3.96875 -4.2468,0.76584 -11.1981,1.125 -20.875,1.125 l -14.0938,0 z m 0,-65.46875 14.0938,0 c 13.7148,1.3e-4 23.0016,1.96932 27.875,5.9375 4.9428,3.89871 7.4062,10.74644 7.4062,20.5625 0,8.91123 -2.6465,15.27191 -7.9374,19.03125 -5.2911,3.75947 -14.3949,5.62513 -27.3438,5.625 l -14.0938,0 z m -17.75,137.09375 31.8438,0 c 14.9679,0 25.6335,-0.8533 31.9688,-2.59375 6.3351,-1.74045 11.6523,-4.75332 15.9687,-9 3.9682,-3.96824 7.0535,-8.7118 9.2813,-14.28125 2.2276,-5.56944 3.3436,-11.43606 3.3437,-17.5625 -1e-4,-10.23387 -2.6466,-18.69156 -7.9375,-25.375 -5.2215,-6.7529 -12.3559,-10.82633 -21.4062,-12.21875 7.3795,-2.15814 12.9834,-5.94467 16.8124,-11.375 3.8986,-5.43013 5.8436,-12.1742 5.8438,-20.25 -2e-4,-6.7529 -1.3474,-12.95452 -4.0625,-18.59375 -2.6455,-5.70856 -6.4081,-10.37972 -11.2813,-14 -3.829,-2.78459 -8.4207,-4.72969 -13.7812,-5.84375 -5.291,-1.18306 -13.5415,-1.78111 -24.75,-1.78125 l -31.8438,0 -92.4063,0 0,152.875 m 92.4063,-16.90625 -74.25,0 0,-53.34375 47.5,0 0,-16.90625 -47.5,0 0,-49.125 74.25,0 z"
         style="font-size:32.79069901px;font-style:normal;font-variant:normal;font-weight:normal;font-stretch:normal;line-height:125%;letter-spacing:0px;word-spacing:0px;fill:#f1edcd;fill-opacity:1;stroke:none;font-family:Futura Bk BT;-inkscape-font-specification:Futura Bk BT"
         id="path9351-6" />
    </g>
    <rect
       y="-409.7561"
       x="178.86177"
       height="189.18761"
       width="221.1252"
       id="rect6373-2"
       style="color:#000000;fill:#f5ce32;fill-opacity:1;fill-rule:nonzero;stroke:none;stroke-width:5.31496048;marker:none;visibility:visible;display:inline;overflow:visible;enable-background:accumulate" />
    <path
       sodipodi:nodetypes="cccccccccccccccccccccscsscccccscccccccscc"
       inkscape:connector-curvature="0"
       id="path9351"
       d="m 197.01813,-391.59979 0,152.875 c 41.4167,0 82.8333,0 124.25,0 14.9679,0 25.6334,-0.8533 31.9688,-2.59375 6.3351,-1.74045 11.6523,-4.75332 15.9687,-9 3.9682,-3.96824 7.0534,-8.7118 9.2813,-14.28125 2.2275,-5.56944 3.3436,-11.43606 3.3437,-17.5625 -10e-5,-10.23387 -2.6466,-18.69156 -7.9375,-25.375 -5.2215,-6.7529 -12.356,-10.82633 -21.4062,-12.21875 7.3795,-2.15814 12.9835,-5.94467 16.8124,-11.375 3.8986,-5.43013 5.8436,-12.1742 5.8438,-20.25 -2e-4,-6.7529 -1.3474,-12.95452 -4.0625,-18.59375 -2.6455,-5.70856 -6.4081,-10.37972 -11.2813,-14 -3.8289,-2.78459 -8.4207,-4.72969 -13.7812,-5.84375 -5.291,-1.18306 -13.5415,-1.78111 -24.75,-1.78125 l -31.8438,0 0,135.53125 -74.25,0 0,-135.53125 z m 110.1562,15.78125 14.0938,0 c 13.7148,1.3e-4 23.0016,1.96932 27.875,5.9375 4.9428,3.89871 7.4062,10.74644 7.4062,20.5625 0,8.91123 -2.6466,15.27191 -7.9374,19.03125 -5.2911,3.75947 -14.3949,5.62513 -27.3438,5.625 l -14.0938,0 z m 0,65.46875 14.0938,0 5.3125,0 c 6.7529,6e-5 11.7349,0.31137 14.9375,0.9375 3.2023,0.62665 6.0319,1.66311 8.4688,3.125 4.1074,2.29751 7.248,5.51757 9.4062,9.625 2.1581,4.10755 3.2186,8.93056 3.2188,14.5 -10e-5,4.80367 -0.9088,9.18808 -2.7188,13.15625 -1.8102,3.96831 -4.2735,7.08471 -7.4062,9.3125 -2.576,1.8797 -6.0276,3.20298 -10.3438,3.96875 -4.2468,0.76584 -11.1981,1.125 -20.875,1.125 l -14.0938,0 z"
       style="font-size:32.79069901px;font-style:normal;font-variant:normal;font-weight:normal;font-stretch:normal;line-height:125%;letter-spacing:0px;word-spacing:0px;fill:#f1edcd;fill-opacity:1;stroke:none;font-family:Futura Bk BT;-inkscape-font-specification:Futura Bk BT" />
    <rect
       y="-409.7561"
       x="-42.263405"
       height="189.18761"
       width="221.1252"
       id="rect6373-6-44"
       style="color:#000000;fill:#930c08;fill-opacity:1;fill-rule:nonzero;stroke:none;stroke-width:5.31496048;marker:none;visibility:visible;display:inline;overflow:visible;enable-background:accumulate" />
    <path
       inkscape:connector-curvature="0"
       id="path9320-7"
       d="m -24.10711,-391.59979 0,152.875 92.4063,0 0,-17.34375 -74.25,0 0,-135.53125 -18.1563,0 z m 80.1876,0 0,17.3125 43.25,0 0,135.5625 18.375,0 0,-135.5625 43,0 0,-17.3125 -104.625,0 z"
       style="font-size:32.79069901px;font-style:normal;font-variant:normal;font-weight:normal;font-stretch:normal;line-height:125%;letter-spacing:0px;word-spacing:0px;fill:#f1edcd;fill-opacity:1;stroke:none;font-family:Futura Bk BT;-inkscape-font-specification:Futura Bk BT" />
    <rect
       y="-598.94373"
       x="-42.263405"
       height="189.18761"
       width="221.1252"
       id="rect6292"
       style="color:#000000;fill:#7ba9c6;fill-opacity:1;fill-rule:nonzero;stroke:none;stroke-width:5.31496048;marker:none;visibility:visible;display:inline;overflow:visible;enable-background:accumulate" />
    <path
       sodipodi:nodetypes="ccccccccccccccccc"
       inkscape:connector-curvature="0"
       id="path9322-8-3"
       d="m -24.10711,-580.78741 0,152.875 92.4063,0 0,-16.90625 -74.25,0 0,-53.34375 47.5,0 0,-16.90625 -47.5,0 0,-49.12525 105.25,0 0,136.2815 18.375,0 0,-136.2815 43.0313,0 0,-16.5935 z"
       style="font-size:32.79069901px;font-style:normal;font-variant:normal;font-weight:normal;font-stretch:normal;line-height:125%;letter-spacing:0px;word-spacing:0px;fill:#f1edcd;fill-opacity:1;stroke:none;font-family:Futura Bk BT;-inkscape-font-specification:Futura Bk BT" />
    <g
       transform="matrix(1,0,0,0.44744698,-6.1035156e-5,103.4732)"
       id="g13789">
      <rect
         style="color:#000000;fill:#7ba9c6;fill-opacity:1;fill-rule:nonzero;stroke:none;stroke-width:5.31496048;marker:none;visibility:visible;display:inline;overflow:visible;enable-background:accumulate"
         id="rect6292-1"
         width="428.43512"
         height="44.450764"
         x="314.69467"
         y="187.26384" />
      <rect
         style="color:#000000;fill:#52753f;fill-opacity:1;fill-rule:nonzero;stroke:none;stroke-width:5.31496048;marker:none;visibility:visible;display:inline;overflow:visible;enable-background:accumulate"
         id="rect6292-1-3"
         width="428.43512"
         height="44.450764"
         x="743.12976"
         y="187.26384" />
      <rect
         style="color:#000000;fill:#930c08;fill-opacity:1;fill-rule:nonzero;stroke:none;stroke-width:5.31496047999999988;marker:none;visibility:visible;display:inline;overflow:visible;enable-background:accumulate"
         id="rect6292-1-2"
         width="428.43512"
         height="44.450764"
         x="1171.5649"
         y="187.26384" />
    </g>
    <rect
       transform="matrix(1.1723636,0,0,1.1723636,0.0059508,3.301706e-4)"
       y="-3.9809615e-06"
       x="-4.8455324e-05"
       height="241.17032"
       width="274.776"
       id="rect6373-6-4"
       style="color:#000000;fill:#2c1c16;fill-opacity:1;fill-rule:nonzero;stroke:none;stroke-width:5.31496048;marker:none;visibility:visible;display:inline;overflow:visible;filter:url(#filter12214);enable-background:accumulate" />
    <g
       id="g7560"
       transform="matrix(2.0702596,0,0,2.0702596,-1239.8703,259.64913)" />
    <rect
       y="8.6414751e-05"
       x="3.4584409e-13"
       height="282.73932"
       width="322.13736"
       id="rect6373-6"
       style="color:#000000;fill:#f5ce32;fill-opacity:1;fill-rule:nonzero;stroke:none;stroke-width:5.31496047999999988;marker:none;visibility:visible;display:inline;overflow:visible;enable-background:accumulate" />
    <path
       style="color:#000000;fill:#f1edd0;fill-opacity:1;fill-rule:nonzero;stroke:none;stroke-width:5.31496048;marker:none;visibility:visible;display:inline;overflow:visible;enable-background:accumulate"
       d="M 301.91856,-0.01059474 238.60606,63.301905 c 13.1395,14.0452 21.1875,32.9293 21.1875,53.687505 0,25.06253 -11.7196,47.40123 -30,61.78125 l 0,66.6875 -83.8438,0 0,-24.0625 -12.3124,0 c -14.4028,1.1e-4 -26.4763,-9.85226 -29.9376,-23.1875 l -84.5312,84.53125 302.9688,0 0,-282.75000474 -20.2188,0 z M 103.69976,198.20816 l 73.875,-73.875 -3.1562,-3.1875 7.0312,-9.90625 c -1.0082,-1.92324 -1.8013,-3.95079 -2.3437,-6.0625 l -11.5625,-2 0,-9.500005 -5.8438,1 c -0.093,0.27948 -0.1131,0.5725 -0.2187,0.84375 -0.3809,1.03093 -0.87,1.99119 -1.4063,2.90625 l 4.4688,6.312505 -5.375,5.34375 -6.5625,-4.625 c -1.2172,0.62929 -2.4563,1.15012 -3.7813,1.5 l -1.3437,7.59375 -7.5313,0 -1.375,-7.90625 c -0.2649,-0.0932 -0.5475,-0.11727 -0.8124,-0.21875 -1.0373,-0.38711 -1.985,-0.89509 -2.9063,-1.4375 l -6.3437,4.46875 -5.375,-5.34375 4.6562,-6.593755 c -0.6149,-1.20279 -1.0877,-2.44571 -1.4375,-3.75 l -7.6563,-1.3125 0,-7.59375 7.875,-1.34375 c 0.087,-0.27948 0.1507,-0.57257 0.25,-0.84375 0.381,-1.03723 0.9014,-1.98916 1.4376,-2.90625 l -4.4688,-6.3125 5.3438,-5.375 6.5624,4.65625 c 1.2174,-0.63145 2.4813,-1.17927 3.8126,-1.53125 l 1.3437,-7.59375 7.5313,0 1.375,7.9375 c 0.2732,0.087 0.5495,0.0882 0.8124,0.1875 1.0393,0.38716 1.983,0.90337 2.9063,1.4375 l 6.3437,-4.46875 5.375,5.375 -4.6562,6.5625 c 0.6314,1.20908 1.1563,2.45627 1.5,3.78125 l 7.5625,1.3125 0,5.53125 9.9375,-1.71875 c 0.1428,-0.45129 0.2656,-0.89238 0.4375,-1.34375 0.5942,-1.62516 1.3346,-3.14873 2.1875,-4.59375 l -6.8125,-9.59375 8.1875,-8.1875 9.9688,7.03125 c 1.9253,-1.00407 3.9508,-1.79926 6.0624,-2.34375 l 1.9376,-11.5625 11.5624,0 2.125,12.03125 c 0.4514,0.13456 0.8945,0.2427 1.3438,0.40625 1.6086,0.59416 3.1028,1.34905 4.5312,2.1875 l 9.625,-6.78125 2.1876,2.21875 5.7187,-5.71875 c -14.3311,-15.31888 -34.7236,-24.87502 -57.3437,-24.875 -35.6437,1e-5 -68.5119,26.76329 -75.3438,56.25 -1.5465,6.554435 -3.25,23.656255 -3.25,23.656255 l -16.4062,41.34375 c -0.3148,0.74326 -0.4688,1.5576 -0.4688,2.4375 0,3.48422 2.8451,6.34362 6.3438,6.34375 l 10.5312,0 0,21.9375 c 0,2.69924 0.3834,5.31663 1.0312,7.8125 z m 129.1876,-129.187505 -21.6876,21.6875 c 2.057,1.50593 3.4063,3.92753 3.4063,6.6875 0,4.585715 -3.7101,8.281245 -8.2813,8.281255 -2.7441,1.1e-4 -5.1822,-1.33806 -6.6874,-3.40625 l -22.0626,22.0625 5,5 9.625,-6.78125 c 1.4368,0.83641 2.9457,1.59329 4.5626,2.1875 0.4492,0.17181 0.8924,0.29464 1.3437,0.4375 l 2.0937,12 10.0313,0 -0.8125,4.8125 c -1.4513,0.32921 -2.8394,0.90253 -4.125,1.625 l -4.7812,-3.375 -3.7813,3.75 3.25,4.59375 c -0.559,0.88817 -1.0337,1.85856 -1.4063,2.875 -0.1491,0.40582 -0.1986,0.8109 -0.3124,1.21875 l -5.8438,1 0,5.28125 5.5938,0.96875 c 0.3209,1.4595 0.8941,2.82905 1.625,4.125 l -3.4063,4.8125 3.75,3.75 4.5937,-3.25 c 0.8882,0.56313 1.8523,1.05866 2.875,1.4375 0.41,0.15112 0.8048,0.19657 1.2188,0.3125 l 0.9688,5.8125 5.3437,0 0.9687,-5.5625 c 1.4596,-0.32093 2.8311,-0.89419 4.125,-1.625 l 4.75,3.375 3.7813,-3.75 -3.25,-4.59375 c 0.5714,-0.89439 1.0899,-1.84402 1.4687,-2.875 0.1429,-0.39953 0.1966,-0.78173 0.3126,-1.1875 l 5.75,-1 0,-5.34375 -5.5313,-0.9375 c -0.3209,-1.45126 -0.8942,-2.83729 -1.625,-4.125 l 3.375,-4.8125 -3.75,-3.75 -4.5937,3.21875 c -0.8799,-0.55897 -1.8211,-1.02734 -2.8438,-1.40625 -0.3934,-0.1428 -0.8192,-0.20484 -1.2188,-0.3125 l -1,-5.8125 -3.8124,0 1.8437,-10.84375 c 2.1034,-0.53622 4.1122,-1.31054 6.0313,-2.3125 l 9.9687,7.03125 8.1563,-8.1875 -6.7813,-9.59375 c 0.8467,-1.43881 1.5871,-2.94565 2.1875,-4.5625 0.1635,-0.44302 0.2946,-0.89239 0.4375,-1.34375 l 12.0313,-2.0625 0,-11.593755 -11.5938,-2 c -0.5445,-2.09717 -1.35,-4.09122 -2.3438,-6 l 7.0313,-9.96875 -5.9687,-5.96875 z m -33.25,33.250005 11.5624,-11.562505 c -1.3667,-1.00066 -3.05,-1.5939 -4.875,-1.59375 -4.5566,-3e-5 -8.25,3.6873 -8.25,8.28125 1e-4,1.82417 0.5682,3.508775 1.5626,4.875005 z m -55.7813,-22.156255 c -4.5856,-1e-5 -8.2814,3.72058 -8.2813,8.3125 0,4.57946 3.6948,8.28216 8.2813,8.28125 4.5939,-1e-5 8.3126,-3.70392 8.3125,-8.28125 0,-4.59182 -3.7155,-8.31563 -8.3125,-8.3125 z m -32.0625,47.531255 15.6562,0 0,3.8125 -15.6562,0 0,-3.8125 z m 100.9062,21.09375 c 4.5563,3.7e-4 8.25,3.73101 8.25,8.3125 0,4.58557 -3.6933,8.28128 -8.25,8.28125 -4.5791,-2.3e-4 -8.3124,-3.69564 -8.3124,-8.28125 0,-4.58147 3.731,-8.3125 8.3124,-8.3125 z"
       id="rect6373-6-3"
       inkscape:connector-curvature="0" />
  </g>
</svg>
