<?xml version="1.0" encoding="UTF-8" standalone="no"?>
<!-- Created with Inkscape (http://www.inkscape.org/) -->

<svg
   xmlns:dc="http://purl.org/dc/elements/1.1/"
   xmlns:cc="http://creativecommons.org/ns#"
   xmlns:rdf="http://www.w3.org/1999/02/22-rdf-syntax-ns#"
   xmlns:svg="http://www.w3.org/2000/svg"
   xmlns="http://www.w3.org/2000/svg"
   xmlns:sodipodi="http://sodipodi.sourceforge.net/DTD/sodipodi-0.dtd"
   xmlns:inkscape="http://www.inkscape.org/namespaces/inkscape"
   width="1600px"
   height="1200px"
   id="svg4435"
   version="1.1"
   inkscape:version="0.48.1 r9760"
   sodipodi:docname="gliederung_rev3.svg">
  <defs
     id="defs4437" />
  <sodipodi:namedview
     id="base"
     pagecolor="#ffffff"
     bordercolor="#666666"
     borderopacity="1.0"
     inkscape:pageopacity="0.0"
     inkscape:pageshadow="2"
     inkscape:zoom="0.555"
     inkscape:cx="904.26591"
     inkscape:cy="524.99728"
     inkscape:current-layer="layer1"
     inkscape:document-units="px"
     showgrid="false"
     inkscape:window-width="1438"
     inkscape:window-height="879"
     inkscape:window-x="0"
     inkscape:window-y="19"
     inkscape:window-maximized="0"
     showguides="true"
     inkscape:guide-bbox="true" />
  <metadata
     id="metadata4440">
    <rdf:RDF>
      <cc:Work
         rdf:about="">
        <dc:format>image/svg+xml</dc:format>
        <dc:type
           rdf:resource="http://purl.org/dc/dcmitype/StillImage" />
        <dc:title></dc:title>
      </cc:Work>
    </rdf:RDF>
  </metadata>
  <g
     id="layer1"
     inkscape:label="Layer 1"
     inkscape:groupmode="layer">
    <g
       id="g6115">
      <g
         transform="translate(0,30.577591)"
         style="fill:#4d3227;fill-opacity:1"
         id="g5957">
        <path
           style="font-size:medium;font-style:normal;font-variant:normal;font-weight:normal;font-stretch:normal;text-indent:0;text-align:start;text-decoration:none;line-height:normal;letter-spacing:normal;word-spacing:normal;text-transform:none;direction:ltr;block-progression:tb;writing-mode:lr-tb;text-anchor:start;baseline-shift:baseline;color:#000000;fill:#4d3227;fill-opacity:1;fill-rule:nonzero;stroke:none;stroke-width:5.31496048;marker:none;visibility:visible;display:inline;overflow:visible;enable-background:accumulate;font-family:Sans;-inkscape-font-specification:Sans"
           d="m 36.0625,296.96875 15.9375,0 0,-5.3125 -15.9375,0 z m 31.90625,0 15.9375,0 0,-5.3125 -15.9375,0 z m 31.875,0 15.9375,0 0,-5.3125 -15.9375,0 z m 31.90625,0 15.9375,0 0,-5.3125 -15.9375,0 z m 31.875,0 15.9375,0 0,-5.3125 -15.9375,0 z m 31.90625,0 15.9375,0 0,-5.3125 -15.9375,0 z m 31.875,0 15.9375,0 0,-5.3125 -15.9375,0 z m 31.90625,0 15.9375,0 0,-5.3125 -15.9375,0 z m 31.875,0 15.9375,0 0,-5.3125 -15.9375,0 z m 31.875,0 15.96875,0 0,-5.3125 -15.96875,0 z m 31.90625,0 15.9375,0 0,-5.3125 -15.9375,0 z m 31.875,0 15.96875,0 0,-5.3125 -15.96875,0 z m 31.90625,0 15.9375,0 0,-5.3125 -15.9375,0 z m 31.875,0 15.96875,0 0,-5.3125 -15.96875,0 z m 31.90625,0 15.9375,0 0,-5.3125 -15.9375,0 z m 31.875,0 15.96875,0 0,-5.3125 -15.96875,0 z m 31.90625,0 15.9375,0 0,-5.3125 -15.9375,0 z m 31.875,0 15.96875,0 0,-5.3125 -15.96875,0 z m 31.90625,0 15.9375,0 0,-5.3125 -15.9375,0 z m 31.875,0 15.9375,0 0,-5.3125 -15.9375,0 z m 31.90625,0 15.9375,0 0,-5.3125 -15.9375,0 z m 31.875,0 15.9375,0 0,-5.3125 -15.9375,0 z m 31.90625,0 15.9375,0 0,-5.3125 -15.9375,0 z m 31.875,0 15.9375,0 0,-5.3125 -15.9375,0 z m 31.90625,0 15.9375,0 0,-5.3125 -15.9375,0 z m 31.875,0 15.9375,0 0,-5.3125 -15.9375,0 z m 31.90625,0 15.9375,0 0,-5.3125 -15.9375,0 z m 31.875,0 15.9375,0 0,-5.3125 -15.9375,0 z m 31.875,0 15.96875,0 0,-5.3125 -15.96875,0 z m 31.90625,0 15.9375,0 0,-5.3125 -15.9375,0 z m 31.875,0 15.9688,0 0,-5.3125 -15.9688,0 z m 31.9062,0 15.9376,0 0,-5.3125 -15.9376,0 z m 31.875,0 15.9688,0 0,-5.3125 -15.9688,0 z m 31.9063,0 15.9375,0 0,-5.3125 -15.9375,0 z m 31.875,0 15.9687,0 0,-5.3125 -15.9687,0 z m 31.9063,0 15.9374,0 0,-5.3125 -15.9374,0 z m 31.875,0 15.9374,0 0,-5.3125 -15.9374,0 z m 31.9062,0 15.9375,0 0,-5.3125 -15.9375,0 z m 31.875,0 15.9375,0 0,-5.3125 -15.9375,0 z m 31.9062,0 15.9376,0 0,-5.3125 -15.9376,0 z m 31.875,0 15.9376,0 0,-5.3125 -15.9376,0 z m 31.9063,0 15.9375,0 0,-5.3125 -15.9375,0 z m 31.875,0 15.9375,0 0,-5.3125 -15.9375,0 z m 31.9063,0 15.9374,0 0,-5.3125 -15.9374,0 z m 31.875,0 15.9374,0 0,-5.3125 -15.9374,0 z m 31.875,0 15.9687,0 0,-5.3125 -15.9687,0 z m 31.9062,0 15.9375,0 0,-5.3125 -15.9375,0 z m 31.875,0 15.9688,0 0,-5.3125 -15.9688,0 z"
           id="path5016"
           inkscape:connector-curvature="0" />
        <path
           style="font-size:medium;font-style:normal;font-variant:normal;font-weight:normal;font-stretch:normal;text-indent:0;text-align:start;text-decoration:none;line-height:normal;letter-spacing:normal;word-spacing:normal;text-transform:none;direction:ltr;block-progression:tb;writing-mode:lr-tb;text-anchor:start;baseline-shift:baseline;color:#000000;fill:#4d3227;fill-opacity:1;fill-rule:nonzero;stroke:none;stroke-width:5.31496048;marker:none;visibility:visible;display:inline;overflow:visible;enable-background:accumulate;font-family:Sans;-inkscape-font-specification:Sans"
           d="m 36.0625,590.4375 15.9375,0 0,-5.3125 -15.9375,0 z m 31.90625,0 15.9375,0 0,-5.3125 -15.9375,0 z m 31.875,0 15.9375,0 0,-5.3125 -15.9375,0 z m 31.90625,0 15.9375,0 0,-5.3125 -15.9375,0 z m 31.875,0 15.9375,0 0,-5.3125 -15.9375,0 z m 31.90625,0 15.9375,0 0,-5.3125 -15.9375,0 z m 31.875,0 15.9375,0 0,-5.3125 -15.9375,0 z m 31.90625,0 15.9375,0 0,-5.3125 -15.9375,0 z m 31.875,0 15.9375,0 0,-5.3125 -15.9375,0 z m 31.875,0 15.96875,0 0,-5.3125 -15.96875,0 z m 31.90625,0 15.9375,0 0,-5.3125 -15.9375,0 z m 31.875,0 15.96875,0 0,-5.3125 -15.96875,0 z m 31.90625,0 15.9375,0 0,-5.3125 -15.9375,0 z m 31.875,0 15.96875,0 0,-5.3125 -15.96875,0 z m 31.90625,0 15.9375,0 0,-5.3125 -15.9375,0 z m 31.875,0 15.96875,0 0,-5.3125 -15.96875,0 z m 31.90625,0 15.9375,0 0,-5.3125 -15.9375,0 z m 31.875,0 15.96875,0 0,-5.3125 -15.96875,0 z m 31.90625,0 15.9375,0 0,-5.3125 -15.9375,0 z m 31.875,0 15.9375,0 0,-5.3125 -15.9375,0 z m 31.90625,0 15.9375,0 0,-5.3125 -15.9375,0 z m 31.875,0 15.9375,0 0,-5.3125 -15.9375,0 z m 31.90625,0 15.9375,0 0,-5.3125 -15.9375,0 z m 31.875,0 15.9375,0 0,-5.3125 -15.9375,0 z m 31.90625,0 15.9375,0 0,-5.3125 -15.9375,0 z m 31.875,0 15.9375,0 0,-5.3125 -15.9375,0 z m 31.90625,0 15.9375,0 0,-5.3125 -15.9375,0 z m 31.875,0 15.9375,0 0,-5.3125 -15.9375,0 z m 31.875,0 15.96875,0 0,-5.3125 -15.96875,0 z m 31.90625,0 15.9375,0 0,-5.3125 -15.9375,0 z m 31.875,0 15.9688,0 0,-5.3125 -15.9688,0 z m 31.9062,0 15.9376,0 0,-5.3125 -15.9376,0 z m 31.875,0 15.9688,0 0,-5.3125 -15.9688,0 z m 31.9063,0 15.9375,0 0,-5.3125 -15.9375,0 z m 31.875,0 15.9687,0 0,-5.3125 -15.9687,0 z m 31.9063,0 15.9374,0 0,-5.3125 -15.9374,0 z m 31.875,0 15.9374,0 0,-5.3125 -15.9374,0 z m 31.9062,0 15.9375,0 0,-5.3125 -15.9375,0 z m 31.875,0 15.9375,0 0,-5.3125 -15.9375,0 z m 31.9062,0 15.9376,0 0,-5.3125 -15.9376,0 z m 31.875,0 15.9376,0 0,-5.3125 -15.9376,0 z m 31.9063,0 15.9375,0 0,-5.3125 -15.9375,0 z m 31.875,0 15.9375,0 0,-5.3125 -15.9375,0 z m 31.9063,0 15.9374,0 0,-5.3125 -15.9374,0 z m 31.875,0 15.9374,0 0,-5.3125 -15.9374,0 z m 31.875,0 15.9687,0 0,-5.3125 -15.9687,0 z m 31.9062,0 15.9375,0 0,-5.3125 -15.9375,0 z m 31.875,0 15.9688,0 0,-5.3125 -15.9688,0 z"
           id="path5016-4"
           inkscape:connector-curvature="0" />
        <path
           style="font-size:medium;font-style:normal;font-variant:normal;font-weight:normal;font-stretch:normal;text-indent:0;text-align:start;text-decoration:none;line-height:normal;letter-spacing:normal;word-spacing:normal;text-transform:none;direction:ltr;block-progression:tb;writing-mode:lr-tb;text-anchor:start;baseline-shift:baseline;color:#000000;fill:#4d3227;fill-opacity:1;fill-rule:nonzero;stroke:none;stroke-width:5.31496048;marker:none;visibility:visible;display:inline;overflow:visible;enable-background:accumulate;font-family:Sans;-inkscape-font-specification:Sans"
           d="m 36.0625,887.0625 15.9375,0 0,-5.3125 -15.9375,0 z m 31.90625,0 15.9375,0 0,-5.3125 -15.9375,0 z m 31.875,0 15.9375,0 0,-5.3125 -15.9375,0 z m 31.90625,0 15.9375,0 0,-5.3125 -15.9375,0 z m 31.875,0 15.9375,0 0,-5.3125 -15.9375,0 z m 31.90625,0 15.9375,0 0,-5.3125 -15.9375,0 z m 31.875,0 15.9375,0 0,-5.3125 -15.9375,0 z m 31.90625,0 15.9375,0 0,-5.3125 -15.9375,0 z m 31.875,0 15.9375,0 0,-5.3125 -15.9375,0 z m 31.875,0 15.96875,0 0,-5.3125 -15.96875,0 z m 31.90625,0 15.9375,0 0,-5.3125 -15.9375,0 z m 31.875,0 15.96875,0 0,-5.3125 -15.96875,0 z m 31.90625,0 15.9375,0 0,-5.3125 -15.9375,0 z m 31.875,0 15.96875,0 0,-5.3125 -15.96875,0 z m 31.90625,0 15.9375,0 0,-5.3125 -15.9375,0 z m 31.875,0 15.96875,0 0,-5.3125 -15.96875,0 z m 31.90625,0 15.9375,0 0,-5.3125 -15.9375,0 z m 31.875,0 15.96875,0 0,-5.3125 -15.96875,0 z m 31.90625,0 15.9375,0 0,-5.3125 -15.9375,0 z m 31.875,0 15.9375,0 0,-5.3125 -15.9375,0 z m 31.90625,0 15.9375,0 0,-5.3125 -15.9375,0 z m 31.875,0 15.9375,0 0,-5.3125 -15.9375,0 z m 31.90625,0 15.9375,0 0,-5.3125 -15.9375,0 z m 31.875,0 15.9375,0 0,-5.3125 -15.9375,0 z m 31.90625,0 15.9375,0 0,-5.3125 -15.9375,0 z m 31.875,0 15.9375,0 0,-5.3125 -15.9375,0 z m 31.90625,0 15.9375,0 0,-5.3125 -15.9375,0 z m 31.875,0 15.9375,0 0,-5.3125 -15.9375,0 z m 31.875,0 15.96875,0 0,-5.3125 -15.96875,0 z m 31.90625,0 15.9375,0 0,-5.3125 -15.9375,0 z m 31.875,0 15.9688,0 0,-5.3125 -15.9688,0 z m 31.9062,0 15.9376,0 0,-5.3125 -15.9376,0 z m 31.875,0 15.9688,0 0,-5.3125 -15.9688,0 z m 31.9063,0 15.9375,0 0,-5.3125 -15.9375,0 z m 31.875,0 15.9687,0 0,-5.3125 -15.9687,0 z m 31.9063,0 15.9374,0 0,-5.3125 -15.9374,0 z m 31.875,0 15.9374,0 0,-5.3125 -15.9374,0 z m 31.9062,0 15.9375,0 0,-5.3125 -15.9375,0 z m 31.875,0 15.9375,0 0,-5.3125 -15.9375,0 z m 31.9062,0 15.9376,0 0,-5.3125 -15.9376,0 z m 31.875,0 15.9376,0 0,-5.3125 -15.9376,0 z m 31.9063,0 15.9375,0 0,-5.3125 -15.9375,0 z m 31.875,0 15.9375,0 0,-5.3125 -15.9375,0 z m 31.9063,0 15.9374,0 0,-5.3125 -15.9374,0 z m 31.875,0 15.9374,0 0,-5.3125 -15.9374,0 z m 31.875,0 15.9687,0 0,-5.3125 -15.9687,0 z m 31.9062,0 15.9375,0 0,-5.3125 -15.9375,0 z m 31.875,0 15.9688,0 0,-5.3125 -15.9688,0 z"
           id="path5016-44"
           inkscape:connector-curvature="0" />
      </g>
      <path
         inkscape:connector-curvature="0"
         id="path5016-7"
         d="m 705.75,322.23384 0,5.3125 15.9375,0 0,-5.3125 -15.9375,0 z m 31.90625,0 0,5.3125 15.9375,0 0,-5.3125 -15.9375,0 z m 31.875,0 0,5.3125 15.9375,0 0,-5.3125 -15.9375,0 z m 31.90625,0 0,5.3125 15.9375,0 0,-5.3125 -15.9375,0 z m 31.875,0 0,5.3125 15.9375,0 0,-5.3125 -15.9375,0 z m 31.90625,0 0,5.3125 15.9375,0 0,-5.3125 -15.9375,0 z m 31.875,0 0,5.3125 15.9375,0 0,-5.3125 -15.9375,0 z m 31.875,0 0,5.3125 15.96875,0 0,-5.3125 -15.96875,0 z m 31.90625,0 0,5.3125 15.9375,0 0,-5.3125 -15.9375,0 z m 31.875,0 0,5.3125 15.9688,0 0,-5.3125 -15.9688,0 z m 31.9062,0 0,5.3125 15.9376,0 0,-5.3125 -15.9376,0 z m 31.875,0 0,5.3125 15.9688,0 0,-5.3125 -15.9688,0 z m 31.9063,0 0,5.3125 15.9375,0 0,-5.3125 -15.9375,0 z m 31.875,0 0,5.3125 15.9687,0 0,-5.3125 -15.9687,0 z m 31.9063,0 0,5.3125 15.9374,0 0,-5.3125 -15.9374,0 z m 31.875,0 0,5.3125 15.9374,0 0,-5.3125 -15.9374,0 z m 31.9062,0 0,5.3125 15.9375,0 0,-5.3125 -15.9375,0 z m 31.875,0 0,5.3125 15.9375,0 0,-5.3125 -15.9375,0 z m 31.9062,0 0,5.3125 15.9376,0 0,-5.3125 -15.9376,0 z m 31.875,0 0,5.3125 15.9376,0 0,-5.3125 -15.9376,0 z m 31.9063,0 0,5.3125 15.9375,0 0,-5.3125 -15.9375,0 z m 31.875,0 0,5.3125 15.9375,0 0,-5.3125 -15.9375,0 z m 31.9063,0 0,5.3125 15.9374,0 0,-5.3125 -15.9374,0 z m 31.875,0 0,5.3125 15.9374,0 0,-5.3125 -15.9374,0 z m 31.875,0 0,5.3125 15.9687,0 0,-5.3125 -15.9687,0 z m 31.9062,3.21875 0,2.09375 3.0938,0 c -1.0344,-0.69781 -2.0587,-1.40146 -3.0938,-2.09375 z m -1148.03125,290.25 0,5.3125 15.9375,0 0,-5.3125 -15.9375,0 z m 31.875,0 0,5.3125 15.96875,0 0,-5.3125 -15.96875,0 z m 31.90625,0 0,5.3125 15.9375,0 0,-5.3125 -15.9375,0 z m 31.875,0 0,5.3125 15.96875,0 0,-5.3125 -15.96875,0 z m 31.90625,0 0,5.3125 15.9375,0 0,-5.3125 -15.9375,0 z m 31.875,0 0,5.3125 15.96875,0 0,-5.3125 -15.96875,0 z m 31.90625,0 0,5.3125 15.9375,0 0,-5.3125 -15.9375,0 z m 31.875,0 0,5.3125 15.96875,0 0,-5.3125 -15.96875,0 z m 31.90625,0 0,5.3125 15.9375,0 0,-5.3125 -15.9375,0 z m 31.875,0 0,5.3125 15.9375,0 0,-5.3125 -15.9375,0 z m 31.90625,0 0,5.3125 15.9375,0 0,-5.3125 -15.9375,0 z m 31.875,0 0,5.3125 15.9375,0 0,-5.3125 -15.9375,0 z m 31.90625,0 0,5.3125 15.9375,0 0,-5.3125 -15.9375,0 z m 31.875,0 0,5.3125 15.9375,0 0,-5.3125 -15.9375,0 z m 31.90625,0 0,5.3125 15.9375,0 0,-5.3125 -15.9375,0 z m 31.875,0 0,5.3125 15.9375,0 0,-5.3125 -15.9375,0 z m 31.90625,0 0,5.3125 15.9375,0 0,-5.3125 -15.9375,0 z m 31.875,0 0,5.3125 15.9375,0 0,-5.3125 -15.9375,0 z m 31.875,0 0,5.3125 15.96875,0 0,-5.3125 -15.96875,0 z m 31.90625,0 0,5.3125 15.9375,0 0,-5.3125 -15.9375,0 z m 31.875,0 0,5.3125 15.9688,0 0,-5.3125 -15.9688,0 z m 31.9062,0 0,5.3125 15.9376,0 0,-5.3125 -15.9376,0 z m 31.875,0 0,5.3125 15.9688,0 0,-5.3125 -15.9688,0 z m 31.9063,0 0,5.3125 15.9375,0 0,-5.3125 -15.9375,0 z m 31.875,0 0,5.3125 15.9687,0 0,-5.3125 -15.9687,0 z m 31.9063,0 0,5.3125 15.9374,0 0,-5.3125 -15.9374,0 z m 31.875,0 0,5.3125 15.9374,0 0,-5.3125 -15.9374,0 z m 31.9062,0 0,5.3125 15.9375,0 0,-5.3125 -15.9375,0 z m 31.875,0 0,5.3125 15.9375,0 0,-5.3125 -15.9375,0 z m 31.9062,0 0,1.15625 1.4688,-1.15625 -1.4688,0 z m -940.74995,0.90625 -5.34375,4.40625 5.34375,0 0,-4.40625 z M 45.125,912.32759 c 1.730169,1.78952 3.489621,3.55977 5.28125,5.3125 l 1.59375,0 0,-5.3125 -6.875,0 z m 22.84375,0 0,5.3125 15.9375,0 0,-5.3125 -15.9375,0 z m 31.875,0 0,5.3125 15.9375,0 0,-5.3125 -15.9375,0 z m 31.90625,0 0,5.3125 15.9375,0 0,-5.3125 -15.9375,0 z m 31.875,0 0,5.3125 15.9375,0 0,-5.3125 -15.9375,0 z m 31.90625,0 0,5.3125 15.9375,0 0,-5.3125 -15.9375,0 z m 31.875,0 0,5.3125 15.9375,0 0,-5.3125 -15.9375,0 z m 31.90625,0 0,5.3125 15.9375,0 0,-5.3125 -15.9375,0 z m 31.875,0 0,5.3125 15.9375,0 0,-5.3125 -15.9375,0 z m 31.875,0 0,5.3125 15.96875,0 0,-5.3125 -15.96875,0 z m 31.90625,0 0,5.3125 15.9375,0 0,-5.3125 -15.9375,0 z m 31.875,0 0,5.3125 15.96875,0 0,-5.3125 -15.96875,0 z m 31.90625,0 0,5.3125 15.9375,0 0,-5.3125 -15.9375,0 z m 31.875,0 0,5.3125 15.96875,0 0,-5.3125 -15.96875,0 z m 31.90625,0 0,5.3125 15.9375,0 0,-5.3125 -15.9375,0 z m 31.875,0 0,5.3125 15.96875,0 0,-5.3125 -15.96875,0 z m 31.90625,0 0,5.3125 15.9375,0 0,-5.3125 -15.9375,0 z m 31.875,0 0,5.3125 15.96875,0 0,-5.3125 -15.96875,0 z m 31.90625,0 0,5.3125 15.9375,0 0,-5.3125 -15.9375,0 z m 31.875,0 0,5.3125 15.9375,0 0,-5.3125 -15.9375,0 z m 31.90625,0 0,5.3125 15.9375,0 0,-5.3125 -15.9375,0 z m 31.875,0 0,5.3125 15.9375,0 0,-5.3125 -15.9375,0 z m 31.90625,0 0,5.3125 15.9375,0 0,-5.3125 -15.9375,0 z m 31.875,0 0,5.3125 15.9375,0 0,-5.3125 -15.9375,0 z m 31.90625,0 0,5.3125 15.9375,0 0,-5.3125 -15.9375,0 z m 31.875,0 0,5.3125 15.9375,0 0,-5.3125 -15.9375,0 z m 31.90625,0 0,5.3125 15.9375,0 0,-5.3125 -15.9375,0 z m 31.875,0 0,5.3125 2.84375,0 6.6875,-5.3125 -9.53125,0 z"
         style="font-size:medium;font-style:normal;font-variant:normal;font-weight:normal;font-stretch:normal;text-indent:0;text-align:start;text-decoration:none;line-height:normal;letter-spacing:normal;word-spacing:normal;text-transform:none;direction:ltr;block-progression:tb;writing-mode:lr-tb;text-anchor:start;baseline-shift:baseline;color:#000000;fill:#f1edcd;fill-opacity:1;fill-rule:nonzero;stroke:none;stroke-width:5.31496048;marker:none;visibility:visible;display:inline;overflow:visible;enable-background:accumulate;font-family:Sans;-inkscape-font-specification:Sans" />
    </g>
    <path
       style="color:#000000;fill:#f1edcd;fill-opacity:1;fill-rule:nonzero;stroke:none;stroke-width:3.54330707;marker:none;visibility:visible;display:inline;overflow:visible;enable-background:accumulate"
       d="m 0,0 c 0,400 0,800 0,1200 533.33333,0 1066.6667,0 1600,0 0,-400 0,-800 0,-1200 C 1066.6667,0 533.33333,0 0,0 z"
       id="rect5526"
       inkscape:connector-curvature="0" />
    <path
       sodipodi:nodetypes="cccccccccccccccccccccccccccccccccccccccccccccccccccccccccccccccccccccccccccccccccccccccccccccccccccccccccccccccccccccccccccccccccccccccccccccccccccccccccccccccccccccccccccccccccccccccccccccccccccccccccccccccccccccccccccc"
       style="font-size:medium;font-style:normal;font-variant:normal;font-weight:normal;font-stretch:normal;text-indent:0;text-align:start;text-decoration:none;line-height:normal;letter-spacing:normal;word-spacing:normal;text-transform:none;direction:ltr;block-progression:tb;writing-mode:lr-tb;text-anchor:start;baseline-shift:baseline;color:#000000;fill:#4d3227;fill-opacity:1;fill-rule:nonzero;stroke:none;stroke-width:5.31496048;marker:none;visibility:visible;display:inline;overflow:visible;enable-background:accumulate;font-family:Sans;-inkscape-font-specification:Sans"
       d="m 36.0625,327.54634 15.9375,0 0,-5.3125 -15.9375,0 z m 31.90625,0 15.9375,0 0,-5.3125 -15.9375,0 z m 31.875,0 15.9375,0 0,-5.3125 -15.9375,0 z m 31.90625,0 15.9375,0 0,-5.3125 -15.9375,0 z m 31.875,0 15.9375,0 0,-5.3125 -15.9375,0 z m 31.90625,0 15.9375,0 0,-5.3125 -15.9375,0 z m 31.875,0 15.9375,0 0,-5.3125 -15.9375,0 z m 31.90625,0 15.9375,0 0,-5.3125 -15.9375,0 z m 31.875,0 15.9375,0 0,-5.3125 -15.9375,0 z m 31.875,0 15.96875,0 0,-5.3125 -15.96875,0 z m 31.90625,0 15.9375,0 0,-5.3125 -15.9375,0 z m 31.875,0 15.96875,0 0,-5.3125 -15.96875,0 z m 31.90625,0 15.9375,0 0,-5.3125 -15.9375,0 z m 31.875,0 15.96875,0 0,-5.3125 -15.96875,0 z m 31.90625,0 15.9375,0 0,-5.3125 -15.9375,0 z m 31.875,0 15.96875,0 0,-5.3125 -15.96875,0 z m 31.90625,0 15.9375,0 0,-5.3125 -15.9375,0 z m 31.875,0 15.96875,0 0,-5.3125 -15.96875,0 z m 31.90625,0 15.9375,0 0,-5.3125 -15.9375,0 z m 31.875,0 15.9375,0 0,-5.3125 -15.9375,0 z m 31.90625,0 15.9375,0 0,-5.3125 -15.9375,0 z m 31.875,0 15.9375,0 0,-5.3125 -15.9375,0 z m 31.90625,0 15.9375,0 0,-5.3125 -15.9375,0 z m 31.875,0 15.9375,0 0,-5.3125 -15.9375,0 z m 31.90625,0 15.9375,0 0,-5.3125 -15.9375,0 z m 31.875,0 15.9375,0 0,-5.3125 -15.9375,0 z m 31.90625,0 15.9375,0 0,-5.3125 -15.9375,0 z m 31.875,0 15.9375,0 0,-5.3125 -15.9375,0 z m 31.875,0 15.96875,0 0,-5.3125 -15.96875,0 z m 31.90625,0 15.9375,0 0,-5.3125 -15.9375,0 z m 31.875,0 15.9688,0 0,-5.3125 -15.9688,0 z m 31.9062,0 15.9376,0 0,-5.3125 -15.9376,0 z m 31.875,0 15.9688,0 0,-5.3125 -15.9688,0 z m 31.9063,0 15.9375,0 0,-5.3125 -15.9375,0 z m 31.875,0 15.9687,0 0,-5.3125 -15.9687,0 z m 31.9063,0 15.9374,0 0,-5.3125 -15.9374,0 z m 31.875,0 15.9374,0 0,-5.3125 -15.9374,0 z m 31.9062,0 15.9375,0 0,-5.3125 -15.9375,0 z m 31.875,0 15.9375,0 0,-5.3125 -15.9375,0 z m 31.9062,0 15.9376,0 0,-5.3125 -15.9376,0 z m 31.875,0 15.9376,0 0,-5.3125 -15.9376,0 z m 31.9063,0 15.9375,0 0,-5.3125 -15.9375,0 z m 31.875,0 15.9375,0 0,-5.3125 -15.9375,0 z m 31.9063,0 15.9374,0 0,-5.3125 -15.9374,0 z"
       id="path5016-70"
       inkscape:connector-curvature="0" />
    <path
       sodipodi:nodetypes="cccccccccccccccccccccccccccccccccccccccccccccccccccccccccccccccccccccccccccccccccccccccccccccccccccccccccccccccccccccccccccccccccccccccccccccccccccccccccccccccccccccccccccccccccccccccccccccccccccccccccccccccccccccccccccc"
       style="font-size:medium;font-style:normal;font-variant:normal;font-weight:normal;font-stretch:normal;text-indent:0;text-align:start;text-decoration:none;line-height:normal;letter-spacing:normal;word-spacing:normal;text-transform:none;direction:ltr;block-progression:tb;writing-mode:lr-tb;text-anchor:start;baseline-shift:baseline;color:#000000;fill:#4d3227;fill-opacity:1;fill-rule:nonzero;stroke:none;stroke-width:5.31496048;marker:none;visibility:visible;display:inline;overflow:visible;enable-background:accumulate;font-family:Sans;-inkscape-font-specification:Sans"
       d="m 99.84375,621.01509 15.9375,0 0,-5.3125 -15.9375,0 z m 31.90625,0 15.9375,0 0,-5.3125 -15.9375,0 z m 31.875,0 15.9375,0 0,-5.3125 -15.9375,0 z m 31.90625,0 15.9375,0 0,-5.3125 -15.9375,0 z m 31.875,0 15.9375,0 0,-5.3125 -15.9375,0 z m 31.90625,0 15.9375,0 0,-5.3125 -15.9375,0 z m 31.875,0 15.9375,0 0,-5.3125 -15.9375,0 z m 31.875,0 15.96875,0 0,-5.3125 -15.96875,0 z m 31.90625,0 15.9375,0 0,-5.3125 -15.9375,0 z m 31.875,0 15.96875,0 0,-5.3125 -15.96875,0 z m 31.90625,0 15.9375,0 0,-5.3125 -15.9375,0 z m 31.875,0 15.96875,0 0,-5.3125 -15.96875,0 z m 31.90625,0 15.9375,0 0,-5.3125 -15.9375,0 z m 31.875,0 15.96875,0 0,-5.3125 -15.96875,0 z m 31.90625,0 15.9375,0 0,-5.3125 -15.9375,0 z m 31.875,0 15.96875,0 0,-5.3125 -15.96875,0 z m 31.90625,0 15.9375,0 0,-5.3125 -15.9375,0 z m 31.875,0 15.9375,0 0,-5.3125 -15.9375,0 z m 31.90625,0 15.9375,0 0,-5.3125 -15.9375,0 z m 31.875,0 15.9375,0 0,-5.3125 -15.9375,0 z m 31.90625,0 15.9375,0 0,-5.3125 -15.9375,0 z m 31.875,0 15.9375,0 0,-5.3125 -15.9375,0 z m 31.90625,0 15.9375,0 0,-5.3125 -15.9375,0 z m 31.875,0 15.9375,0 0,-5.3125 -15.9375,0 z m 31.90625,0 15.9375,0 0,-5.3125 -15.9375,0 z m 31.875,0 15.9375,0 0,-5.3125 -15.9375,0 z m 31.875,0 15.96875,0 0,-5.3125 -15.96875,0 z m 31.90625,0 15.9375,0 0,-5.3125 -15.9375,0 z m 31.875,0 15.9688,0 0,-5.3125 -15.9688,0 z m 31.9062,0 15.9376,0 0,-5.3125 -15.9376,0 z m 31.875,0 15.9688,0 0,-5.3125 -15.9688,0 z m 31.9063,0 15.9375,0 0,-5.3125 -15.9375,0 z m 31.875,0 15.9687,0 0,-5.3125 -15.9687,0 z m 31.9063,0 15.9374,0 0,-5.3125 -15.9374,0 z m 31.875,0 15.9374,0 0,-5.3125 -15.9374,0 z m 31.9062,0 15.9375,0 0,-5.3125 -15.9375,0 z m 31.875,0 15.9375,0 0,-5.3125 -15.9375,0 z m 31.9062,0 15.9376,0 0,-5.3125 -15.9376,0 z m 31.875,0 15.9376,0 0,-5.3125 -15.9376,0 z m 31.9063,0 15.9375,0 0,-5.3125 -15.9375,0 z m 31.875,0 15.9375,0 0,-5.3125 -15.9375,0 z m 31.9063,0 15.9374,0 0,-5.3125 -15.9374,0 z m 31.875,0 15.9374,0 0,-5.3125 -15.9374,0 z m 31.875,0 15.9687,0 0,-5.3125 -15.9687,0 z"
       id="path5016-4-8"
       inkscape:connector-curvature="0" />
    <path
       sodipodi:nodetypes="cccccccccccccccccccccccccccccccccccccccccccccccccccccccccccccccccccccccccccccccccccccccccccccccccccccccccccccccccccccccccccccccccccccccccccccccccccccccccccccccccccccccccccccccccccccccccccccccccccccccccccccccccccccccccccc"
       style="font-size:medium;font-style:normal;font-variant:normal;font-weight:normal;font-stretch:normal;text-indent:0;text-align:start;text-decoration:none;line-height:normal;letter-spacing:normal;word-spacing:normal;text-transform:none;direction:ltr;block-progression:tb;writing-mode:lr-tb;text-anchor:start;baseline-shift:baseline;color:#000000;fill:#4d3227;fill-opacity:1;fill-rule:nonzero;stroke:none;stroke-width:5.31496048;marker:none;visibility:visible;display:inline;overflow:visible;enable-background:accumulate;font-family:Sans;-inkscape-font-specification:Sans"
       d="m 163.625,917.64009 15.9375,0 0,-5.3125 -15.9375,0 z m 31.90625,0 15.9375,0 0,-5.3125 -15.9375,0 z m 31.875,0 15.9375,0 0,-5.3125 -15.9375,0 z m 31.90625,0 15.9375,0 0,-5.3125 -15.9375,0 z m 31.875,0 15.9375,0 0,-5.3125 -15.9375,0 z m 31.875,0 15.96875,0 0,-5.3125 -15.96875,0 z m 31.90625,0 15.9375,0 0,-5.3125 -15.9375,0 z m 31.875,0 15.96875,0 0,-5.3125 -15.96875,0 z m 31.90625,0 15.9375,0 0,-5.3125 -15.9375,0 z m 31.875,0 15.96875,0 0,-5.3125 -15.96875,0 z m 31.90625,0 15.9375,0 0,-5.3125 -15.9375,0 z m 31.875,0 15.96875,0 0,-5.3125 -15.96875,0 z m 31.90625,0 15.9375,0 0,-5.3125 -15.9375,0 z m 31.875,0 15.96875,0 0,-5.3125 -15.96875,0 z m 31.90625,0 15.9375,0 0,-5.3125 -15.9375,0 z m 31.875,0 15.9375,0 0,-5.3125 -15.9375,0 z m 31.90625,0 15.9375,0 0,-5.3125 -15.9375,0 z m 31.875,0 15.9375,0 0,-5.3125 -15.9375,0 z m 31.90625,0 15.9375,0 0,-5.3125 -15.9375,0 z m 31.875,0 15.9375,0 0,-5.3125 -15.9375,0 z m 31.90625,0 15.9375,0 0,-5.3125 -15.9375,0 z m 31.875,0 15.9375,0 0,-5.3125 -15.9375,0 z m 31.90625,0 15.9375,0 0,-5.3125 -15.9375,0 z m 31.875,0 15.9375,0 0,-5.3125 -15.9375,0 z m 31.875,0 15.96875,0 0,-5.3125 -15.96875,0 z m 31.90625,0 15.9375,0 0,-5.3125 -15.9375,0 z m 31.875,0 15.9688,0 0,-5.3125 -15.9688,0 z m 31.9062,0 15.9376,0 0,-5.3125 -15.9376,0 z m 31.875,0 15.9688,0 0,-5.3125 -15.9688,0 z m 31.9063,0 15.9375,0 0,-5.3125 -15.9375,0 z m 31.875,0 15.9687,0 0,-5.3125 -15.9687,0 z m 31.9063,0 15.9374,0 0,-5.3125 -15.9374,0 z m 31.875,0 15.9374,0 0,-5.3125 -15.9374,0 z m 31.9062,0 15.9375,0 0,-5.3125 -15.9375,0 z m 31.875,0 15.9375,0 0,-5.3125 -15.9375,0 z m 31.9062,0 15.9376,0 0,-5.3125 -15.9376,0 z m 31.875,0 15.9376,0 0,-5.3125 -15.9376,0 z m 31.9063,0 15.9375,0 0,-5.3125 -15.9375,0 z m 31.875,0 15.9375,0 0,-5.3125 -15.9375,0 z m 31.9063,0 15.9374,0 0,-5.3125 -15.9374,0 z m 31.875,0 15.9374,0 0,-5.3125 -15.9374,0 z m 31.875,0 15.9687,0 0,-5.3125 -15.9687,0 z m 31.9062,0 15.9375,0 0,-5.3125 -15.9375,0 z m 31.875,0 15.9688,0 0,-5.3125 -15.9688,0 z"
       id="path5016-44-1"
       inkscape:connector-curvature="0" />
    <rect
       style="color:#000000;fill:#f1edcd;fill-opacity:1;fill-rule:nonzero;stroke:none;stroke-width:5.31496048;marker:none;visibility:visible;display:inline;overflow:visible;enable-background:accumulate"
       id="rect6173-9"
       width="1580.1802"
       height="72.072075"
       x="18.918917"
       y="873.8739" />
    <rect
       style="color:#000000;fill:#f1edcd;fill-opacity:1;fill-rule:nonzero;stroke:none;stroke-width:5.31496047999999988;stroke-miterlimit:4;stroke-opacity:1;stroke-dasharray:15.94488188999999956, 15.94488188999999956;stroke-dashoffset:0;marker:none;visibility:visible;display:inline;overflow:visible;enable-background:accumulate"
       id="rect6173"
       width="1580.1802"
       height="72.072075"
       x="18.018019"
       y="281.08109" />
    <path
       style="fill:#f5ce32;stroke:none;fill-opacity:1"
       d="M 864.78027,276.13377 749.45312,946.21676 C 511.60964,1091.1881 136.16728,1052.6184 18.75,880.07419 l 795.56641,-654.4336 z"
       id="path5778"
       inkscape:connector-curvature="0"
       sodipodi:nodetypes="ccccc" />
    <path
       style="fill:#7ba9c6;stroke:none;fill-opacity:1"
       d="M 749.4299,946.19328 864.75845,276.16325 C 1193.879,157.22349 1383.3917,225.90465 1578.1377,380.65054 L 799.99511,996.76853 z"
       id="path5747"
       inkscape:connector-curvature="0"
       sodipodi:nodetypes="ccccc" />
    <flowRoot
       xml:space="preserve"
       id="flowRoot4443"
       style="font-size:40px;font-style:normal;font-weight:normal;line-height:125%;letter-spacing:0px;word-spacing:0px;fill:#4d3227;fill-opacity:1;stroke:none;font-family:Futura Bk BT;-inkscape-font-specification:Futura Bk BT"
       transform="matrix(1.3866835,0,0,1.3866835,956.01091,293.29529)"><flowRegion
         id="flowRegion4445"><rect
           id="rect4447"
           width="655.85583"
           height="461.26126"
           x="70.270271"
           y="230.63063"
           style="fill:#4d3227;fill-opacity:1;font-family:Futura Bk BT;-inkscape-font-specification:Futura Bk BT" /></flowRegion><flowPara
         id="flowPara4451"
         style="font-size:108.17176056px">LAMPE</flowPara></flowRoot>    <flowRoot
       transform="matrix(1.3866835,0,0,1.3866835,-10.504724,109.86319)"
       xml:space="preserve"
       id="flowRoot4443-6"
       style="font-size:40px;font-style:normal;font-weight:normal;line-height:125%;letter-spacing:0px;word-spacing:0px;fill:#4d3227;fill-opacity:1;stroke:none;font-family:Futura Bk BT;-inkscape-font-specification:Futura Bk BT"><flowRegion
         id="flowRegion4445-3"><rect
           id="rect4447-8"
           width="655.85583"
           height="461.26126"
           x="70.270271"
           y="230.63063"
           style="fill:#4d3227;fill-opacity:1;font-family:Futura Bk BT;-inkscape-font-specification:Futura Bk BT" /></flowRegion><flowPara
         id="flowPara4451-5"
         style="font-size:108.17176056px">EEG</flowPara><flowPara
         id="flowPara4482"
         style="font-size:108.17176056px" /></flowRoot>    <flowRoot
       xml:space="preserve"
       id="flowRoot4484"
       style="font-size:40px;font-style:normal;font-weight:normal;line-height:125%;letter-spacing:0px;word-spacing:0px;fill:#000000;fill-opacity:1;stroke:none;font-family:Bitstream Vera Sans;-inkscape-font-specification:Bookman Uralic"
       transform="matrix(1.25,0,0,1.25,-200,-114.30081)"><flowRegion
         id="flowRegion4486"><rect
           id="rect4488"
           width="818.01801"
           height="221.62163"
           x="-1.8018018"
           y="410.81082" /></flowRegion><flowPara
         id="flowPara4490"></flowPara></flowRoot>    <rect
       style="color:#000000;fill:#7ba9c6;fill-opacity:1;fill-rule:nonzero;stroke:none;stroke-width:5.31496047999999988;marker:none;visibility:visible;display:inline;overflow:visible;enable-background:accumulate"
       id="rect6292"
       width="93.359367"
       height="71.484383"
       x="668.25995"
       y="495.29782" />
    <flowRoot
       xml:space="preserve"
       id="flowRoot6054"
       style="font-size:40px;font-style:normal;font-variant:normal;font-weight:normal;font-stretch:normal;line-height:125%;letter-spacing:0px;word-spacing:0px;fill:#f1edcd;fill-opacity:1;stroke:none;font-family:Futura Bk BT;-inkscape-font-specification:Futura Bk BT"
       transform="matrix(3.0496454,0,0,3.0496454,-1112.0825,-916.35341)"><flowRegion
         id="flowRegion6056"><rect
           id="rect6058"
           width="451.01947"
           height="219.1394"
           x="580.97424"
           y="453.39716"
           style="fill:#f1edcd;fill-opacity:1" /></flowRegion><flowPara
         id="flowPara6060"
         style="font-size:32.79069900999999732px;font-style:normal;font-variant:normal;font-weight:normal;font-stretch:normal;fill:#f1edcd;fill-opacity:1;font-family:Futura Bk BT;-inkscape-font-specification:Futura Bk BT">ET</flowPara></flowRoot>    <rect
       style="color:#000000;fill:#930c08;fill-opacity:1;fill-rule:nonzero;stroke:none;stroke-width:5.31496047999999988;marker:none;visibility:visible;display:inline;overflow:visible;enable-background:accumulate"
       id="rect6373-6"
       width="81.445312"
       height="71.484383"
       x="674.21692"
       y="669.93549" />
    <flowRoot
       xml:space="preserve"
       id="flowRoot6054-7"
       style="font-size:40px;font-style:normal;font-variant:normal;font-weight:normal;font-stretch:normal;line-height:125%;letter-spacing:0px;word-spacing:0px;fill:#f1edcd;fill-opacity:1;stroke:none;font-family:Futura Bk BT;-inkscape-font-specification:Futura Bk BT"
       transform="matrix(3.0496454,0,0,3.0496454,-1106.1255,-741.71578)"><flowRegion
         id="flowRegion6056-8"><rect
           id="rect6058-9"
           width="451.01947"
           height="219.1394"
           x="580.97424"
           y="453.39716"
           style="fill:#f1edcd;fill-opacity:1" /></flowRegion><flowPara
         id="flowPara6060-15"
         style="font-size:32.79069900999999732px;font-style:normal;font-variant:normal;font-weight:normal;font-stretch:normal;fill:#f1edcd;fill-opacity:1;font-family:Futura Bk BT;-inkscape-font-specification:Futura Bk BT">LT</flowPara></flowRoot>    <rect
       style="color:#000000;fill:#52753f;fill-opacity:1;fill-rule:nonzero;stroke:none;stroke-width:5.31496047999999988;marker:none;visibility:visible;display:inline;overflow:visible;enable-background:accumulate"
       id="rect6373"
       width="95.361328"
       height="71.484383"
       x="863.48157"
       y="495.29782" />
    <flowRoot
       xml:space="preserve"
       id="flowRoot6054-8"
       style="font-size:40px;font-style:normal;font-variant:normal;font-weight:normal;font-stretch:normal;line-height:125%;letter-spacing:0px;word-spacing:0px;fill:#f1edcd;fill-opacity:1;stroke:none;font-family:Futura Bk BT;-inkscape-font-specification:Futura Bk BT"
       transform="matrix(3.0496454,0,0,3.0496454,-916.86086,-916.35341)"><flowRegion
         id="flowRegion6056-3"><rect
           id="rect6058-0"
           width="451.01947"
           height="219.1394"
           x="580.97424"
           y="453.39716"
           style="fill:#f1edcd;fill-opacity:1" /></flowRegion><flowPara
         id="flowPara6060-1"
         style="font-size:32.79069900999999732px;font-style:normal;font-variant:normal;font-weight:normal;font-stretch:normal;fill:#f1edcd;fill-opacity:1;font-family:Futura Bk BT;-inkscape-font-specification:Futura Bk BT">EB</flowPara></flowRoot>    <rect
       style="color:#000000;fill:#f5ce32;fill-opacity:1;fill-rule:nonzero;stroke:none;stroke-width:5.31496047999999988;marker:none;visibility:visible;display:inline;overflow:visible;enable-background:accumulate"
       id="rect6373-2"
       width="88.916023"
       height="71.484383"
       x="866.70422"
       y="669.93549" />
    <flowRoot
       xml:space="preserve"
       id="flowRoot6054-4"
       style="font-size:40px;font-style:normal;font-variant:normal;font-weight:normal;font-stretch:normal;line-height:125%;letter-spacing:0px;word-spacing:0px;fill:#f1edcd;fill-opacity:1;stroke:none;font-family:Futura Bk BT;-inkscape-font-specification:Futura Bk BT"
       transform="matrix(3.0496454,0,0,3.0496454,-913.6382,-741.71578)"><flowRegion
         id="flowRegion6056-9"><rect
           id="rect6058-2"
           width="451.01947"
           height="219.1394"
           x="580.97424"
           y="453.39716"
           style="fill:#f1edcd;fill-opacity:1" /></flowRegion><flowPara
         id="flowPara6060-5"
         style="font-size:32.79069900999999732px;font-style:normal;font-variant:normal;font-weight:normal;font-stretch:normal;fill:#f1edcd;fill-opacity:1;font-family:Futura Bk BT;-inkscape-font-specification:Futura Bk BT">LB</flowPara></flowRoot>    <path
       style="font-size:medium;font-style:normal;font-variant:normal;font-weight:normal;font-stretch:normal;text-indent:0;text-align:start;text-decoration:none;line-height:normal;letter-spacing:normal;word-spacing:normal;text-transform:none;direction:ltr;block-progression:tb;writing-mode:lr-tb;text-anchor:start;baseline-shift:baseline;color:#000000;fill:#f1edcd;fill-opacity:1;fill-rule:nonzero;stroke:none;stroke-width:5.31496048;marker:none;visibility:visible;display:inline;overflow:visible;enable-background:accumulate;font-family:Sans;-inkscape-font-specification:Sans"
       d="m 354.96875,615.70259 0,5.3125 15.9375,0 0,-5.3125 z m 31.875,0 0,5.3125 15.96875,0 0,-5.3125 z m 31.90625,0 0,5.3125 15.9375,0 0,-5.3125 z m 31.875,0 0,5.3125 15.96875,0 0,-5.3125 z m 31.90625,0 0,5.3125 15.9375,0 0,-5.3125 z m 31.875,0 0,5.3125 15.96875,0 0,-5.3125 z m 31.90625,0 0,5.3125 15.9375,0 0,-5.3125 z m 31.875,0 0,5.3125 15.96875,0 0,-5.3125 z m 31.90625,0 0,5.3125 15.9375,0 0,-5.3125 z m 31.875,0 0,5.3125 15.9375,0 0,-5.3125 z m 31.90625,0 0,5.3125 15.9375,0 0,-5.3125 z m 31.875,0 0,5.3125 15.9375,0 0,-5.3125 z m 31.90625,0 0,5.3125 15.9375,0 0,-5.3125 z m 31.875,0 0,5.3125 15.9375,0 0,-5.3125 z m 31.90625,0 0,5.3125 15.9375,0 0,-5.3125 z m 31.875,0 0,5.3125 15.9375,0 0,-5.3125 z m 31.90625,0 0,5.3125 15.9375,0 0,-5.3125 z m 31.875,0 0,5.3125 15.9375,0 0,-5.3125 z m 31.875,0 0,5.3125 15.96875,0 0,-5.3125 z m 31.90625,0 0,5.3125 15.9375,0 0,-5.3125 z m 31.875,0 0,5.3125 15.9688,0 0,-5.3125 z m 31.9062,0 0,5.3125 15.9376,0 0,-5.3125 z m 31.875,0 0,5.3125 15.9688,0 0,-5.3125 z m 31.9063,0 0,5.3125 15.9375,0 0,-5.3125 z m 31.875,0 0,5.3125 15.9687,0 0,-5.3125 z m 31.9063,0 0,5.3125 15.9374,0 0,-5.3125 z m 31.875,0 0,5.3125 15.9374,0 0,-5.3125 z m 31.9062,0 0,5.3125 15.9375,0 0,-5.3125 z m 31.875,0 0,5.3125 15.9375,0 0,-5.3125 z m 31.9062,0 0,1.15625 1.4688,-1.15625 z m -940.74995,0.90625 -5.34375,4.40625 5.34375,0 z"
       id="path5016-7-9"
       inkscape:connector-curvature="0"
       sodipodi:nodetypes="ccccccccccccccccccccccccccccccccccccccccccccccccccccccccccccccccccccccccccccccccccccccccccccccccccccccccccccccccccccccccccccccccccccccccccccccccccccccccc" />
    <flowRoot
       xml:space="preserve"
       id="flowRoot4550"
       style="font-size:80px;font-style:normal;font-variant:normal;font-weight:normal;font-stretch:normal;line-height:125%;letter-spacing:0px;word-spacing:0px;fill:#4d3227;fill-opacity:1;stroke:none;font-family:Futura Bk BT;-inkscape-font-specification:Futura Bk BT"
       transform="matrix(0.88388348,-0.88388348,0.88388348,0.88388348,-42.732032,329.44932)"><flowRegion
         id="flowRegion4552"><rect
           id="rect4554"
           width="632.43243"
           height="416.21622"
           x="430.63065"
           y="403.60361"
           style="font-size:80px;fill:#4d3227;fill-opacity:1" /></flowRegion><flowPara
         id="flowPara4556">TECHNIK</flowPara></flowRoot>    <flowRoot
       transform="matrix(0.88388348,-0.88388348,0.88388348,0.88388348,283.68758,963.32407)"
       xml:space="preserve"
       id="flowRoot4443-61"
       style="font-size:80px;font-style:normal;font-weight:normal;line-height:125%;letter-spacing:0px;word-spacing:0px;fill:#4d3227;fill-opacity:1;stroke:none;font-family:Futura Bk BT;-inkscape-font-specification:Futura Bk BT"><flowRegion
         id="flowRegion4445-1"><rect
           id="rect4447-5"
           width="655.85583"
           height="461.26126"
           x="70.270271"
           y="230.63063"
           style="font-size:80px;fill:#4d3227;fill-opacity:1;font-family:Futura Bk BT;-inkscape-font-specification:Futura Bk BT" /></flowRegion><flowPara
         id="flowPara4519">BIOLOGIE</flowPara></flowRoot>  </g>
</svg>
