<?xml version="1.0" encoding="UTF-8" standalone="no"?>
<!-- Created with Inkscape (http://www.inkscape.org/) -->

<svg
   xmlns:dc="http://purl.org/dc/elements/1.1/"
   xmlns:cc="http://creativecommons.org/ns#"
   xmlns:rdf="http://www.w3.org/1999/02/22-rdf-syntax-ns#"
   xmlns:svg="http://www.w3.org/2000/svg"
   xmlns="http://www.w3.org/2000/svg"
   xmlns:sodipodi="http://sodipodi.sourceforge.net/DTD/sodipodi-0.dtd"
   xmlns:inkscape="http://www.inkscape.org/namespaces/inkscape"
   width="1600px"
   height="1200px"
   id="svg4435"
   version="1.1"
   inkscape:version="0.48.1 r9760"
   sodipodi:docname="gliederung_rev2.svg">
  <defs
     id="defs4437" />
  <sodipodi:namedview
     id="base"
     pagecolor="#ffffff"
     bordercolor="#666666"
     borderopacity="1.0"
     inkscape:pageopacity="0.0"
     inkscape:pageshadow="2"
     inkscape:zoom="0.39244426"
     inkscape:cx="1011.1562"
     inkscape:cy="557.90227"
     inkscape:current-layer="layer1"
     inkscape:document-units="px"
     showgrid="false"
     inkscape:window-width="1438"
     inkscape:window-height="879"
     inkscape:window-x="0"
     inkscape:window-y="19"
     inkscape:window-maximized="0"
     showguides="true"
     inkscape:guide-bbox="true" />
  <metadata
     id="metadata4440">
    <rdf:RDF>
      <cc:Work
         rdf:about="">
        <dc:format>image/svg+xml</dc:format>
        <dc:type
           rdf:resource="http://purl.org/dc/dcmitype/StillImage" />
        <dc:title></dc:title>
      </cc:Work>
    </rdf:RDF>
  </metadata>
  <g
     id="layer1"
     inkscape:label="Layer 1"
     inkscape:groupmode="layer">
    <path
       style="color:#000000;fill:#f1edcd;fill-opacity:1;fill-rule:nonzero;stroke:none;stroke-width:3.54330707000000000;marker:none;visibility:visible;display:inline;overflow:visible;enable-background:accumulate;stroke-miterlimit:4;stroke-dasharray:none"
       d="m 0,0 c 0,400 0,800 0,1200 533.33333,0 1066.6667,0 1600,0 0,-400 0,-800 0,-1200 C 1066.6667,0 533.33333,0 0,0 z"
       id="rect5526"
       inkscape:connector-curvature="0" />
    <g
       id="g5957"
       style="fill:#4d3227;fill-opacity:1">
      <path
         inkscape:connector-curvature="0"
         id="path5016"
         d="m 36.0625,296.96875 15.9375,0 0,-5.3125 -15.9375,0 z m 31.90625,0 15.9375,0 0,-5.3125 -15.9375,0 z m 31.875,0 15.9375,0 0,-5.3125 -15.9375,0 z m 31.90625,0 15.9375,0 0,-5.3125 -15.9375,0 z m 31.875,0 15.9375,0 0,-5.3125 -15.9375,0 z m 31.90625,0 15.9375,0 0,-5.3125 -15.9375,0 z m 31.875,0 15.9375,0 0,-5.3125 -15.9375,0 z m 31.90625,0 15.9375,0 0,-5.3125 -15.9375,0 z m 31.875,0 15.9375,0 0,-5.3125 -15.9375,0 z m 31.875,0 15.96875,0 0,-5.3125 -15.96875,0 z m 31.90625,0 15.9375,0 0,-5.3125 -15.9375,0 z m 31.875,0 15.96875,0 0,-5.3125 -15.96875,0 z m 31.90625,0 15.9375,0 0,-5.3125 -15.9375,0 z m 31.875,0 15.96875,0 0,-5.3125 -15.96875,0 z m 31.90625,0 15.9375,0 0,-5.3125 -15.9375,0 z m 31.875,0 15.96875,0 0,-5.3125 -15.96875,0 z m 31.90625,0 15.9375,0 0,-5.3125 -15.9375,0 z m 31.875,0 15.96875,0 0,-5.3125 -15.96875,0 z m 31.90625,0 15.9375,0 0,-5.3125 -15.9375,0 z m 31.875,0 15.9375,0 0,-5.3125 -15.9375,0 z m 31.90625,0 15.9375,0 0,-5.3125 -15.9375,0 z m 31.875,0 15.9375,0 0,-5.3125 -15.9375,0 z m 31.90625,0 15.9375,0 0,-5.3125 -15.9375,0 z m 31.875,0 15.9375,0 0,-5.3125 -15.9375,0 z m 31.90625,0 15.9375,0 0,-5.3125 -15.9375,0 z m 31.875,0 15.9375,0 0,-5.3125 -15.9375,0 z m 31.90625,0 15.9375,0 0,-5.3125 -15.9375,0 z m 31.875,0 15.9375,0 0,-5.3125 -15.9375,0 z m 31.875,0 15.96875,0 0,-5.3125 -15.96875,0 z m 31.90625,0 15.9375,0 0,-5.3125 -15.9375,0 z m 31.875,0 15.9688,0 0,-5.3125 -15.9688,0 z m 31.9062,0 15.9376,0 0,-5.3125 -15.9376,0 z m 31.875,0 15.9688,0 0,-5.3125 -15.9688,0 z m 31.9063,0 15.9375,0 0,-5.3125 -15.9375,0 z m 31.875,0 15.9687,0 0,-5.3125 -15.9687,0 z m 31.9063,0 15.9374,0 0,-5.3125 -15.9374,0 z m 31.875,0 15.9374,0 0,-5.3125 -15.9374,0 z m 31.9062,0 15.9375,0 0,-5.3125 -15.9375,0 z m 31.875,0 15.9375,0 0,-5.3125 -15.9375,0 z m 31.9062,0 15.9376,0 0,-5.3125 -15.9376,0 z m 31.875,0 15.9376,0 0,-5.3125 -15.9376,0 z m 31.9063,0 15.9375,0 0,-5.3125 -15.9375,0 z m 31.875,0 15.9375,0 0,-5.3125 -15.9375,0 z m 31.9063,0 15.9374,0 0,-5.3125 -15.9374,0 z m 31.875,0 15.9374,0 0,-5.3125 -15.9374,0 z m 31.875,0 15.9687,0 0,-5.3125 -15.9687,0 z m 31.9062,0 15.9375,0 0,-5.3125 -15.9375,0 z m 31.875,0 15.9688,0 0,-5.3125 -15.9688,0 z"
         style="font-size:medium;font-style:normal;font-variant:normal;font-weight:normal;font-stretch:normal;text-indent:0;text-align:start;text-decoration:none;line-height:normal;letter-spacing:normal;word-spacing:normal;text-transform:none;direction:ltr;block-progression:tb;writing-mode:lr-tb;text-anchor:start;baseline-shift:baseline;color:#000000;fill:#4d3227;fill-opacity:1;fill-rule:nonzero;stroke:none;stroke-width:5.31496047999999988;marker:none;visibility:visible;display:inline;overflow:visible;enable-background:accumulate;font-family:Sans;-inkscape-font-specification:Sans" />
      <path
         inkscape:connector-curvature="0"
         id="path5016-4"
         d="m 36.0625,590.4375 15.9375,0 0,-5.3125 -15.9375,0 z m 31.90625,0 15.9375,0 0,-5.3125 -15.9375,0 z m 31.875,0 15.9375,0 0,-5.3125 -15.9375,0 z m 31.90625,0 15.9375,0 0,-5.3125 -15.9375,0 z m 31.875,0 15.9375,0 0,-5.3125 -15.9375,0 z m 31.90625,0 15.9375,0 0,-5.3125 -15.9375,0 z m 31.875,0 15.9375,0 0,-5.3125 -15.9375,0 z m 31.90625,0 15.9375,0 0,-5.3125 -15.9375,0 z m 31.875,0 15.9375,0 0,-5.3125 -15.9375,0 z m 31.875,0 15.96875,0 0,-5.3125 -15.96875,0 z m 31.90625,0 15.9375,0 0,-5.3125 -15.9375,0 z m 31.875,0 15.96875,0 0,-5.3125 -15.96875,0 z m 31.90625,0 15.9375,0 0,-5.3125 -15.9375,0 z m 31.875,0 15.96875,0 0,-5.3125 -15.96875,0 z m 31.90625,0 15.9375,0 0,-5.3125 -15.9375,0 z m 31.875,0 15.96875,0 0,-5.3125 -15.96875,0 z m 31.90625,0 15.9375,0 0,-5.3125 -15.9375,0 z m 31.875,0 15.96875,0 0,-5.3125 -15.96875,0 z m 31.90625,0 15.9375,0 0,-5.3125 -15.9375,0 z m 31.875,0 15.9375,0 0,-5.3125 -15.9375,0 z m 31.90625,0 15.9375,0 0,-5.3125 -15.9375,0 z m 31.875,0 15.9375,0 0,-5.3125 -15.9375,0 z m 31.90625,0 15.9375,0 0,-5.3125 -15.9375,0 z m 31.875,0 15.9375,0 0,-5.3125 -15.9375,0 z m 31.90625,0 15.9375,0 0,-5.3125 -15.9375,0 z m 31.875,0 15.9375,0 0,-5.3125 -15.9375,0 z m 31.90625,0 15.9375,0 0,-5.3125 -15.9375,0 z m 31.875,0 15.9375,0 0,-5.3125 -15.9375,0 z m 31.875,0 15.96875,0 0,-5.3125 -15.96875,0 z m 31.90625,0 15.9375,0 0,-5.3125 -15.9375,0 z m 31.875,0 15.9688,0 0,-5.3125 -15.9688,0 z m 31.9062,0 15.9376,0 0,-5.3125 -15.9376,0 z m 31.875,0 15.9688,0 0,-5.3125 -15.9688,0 z m 31.9063,0 15.9375,0 0,-5.3125 -15.9375,0 z m 31.875,0 15.9687,0 0,-5.3125 -15.9687,0 z m 31.9063,0 15.9374,0 0,-5.3125 -15.9374,0 z m 31.875,0 15.9374,0 0,-5.3125 -15.9374,0 z m 31.9062,0 15.9375,0 0,-5.3125 -15.9375,0 z m 31.875,0 15.9375,0 0,-5.3125 -15.9375,0 z m 31.9062,0 15.9376,0 0,-5.3125 -15.9376,0 z m 31.875,0 15.9376,0 0,-5.3125 -15.9376,0 z m 31.9063,0 15.9375,0 0,-5.3125 -15.9375,0 z m 31.875,0 15.9375,0 0,-5.3125 -15.9375,0 z m 31.9063,0 15.9374,0 0,-5.3125 -15.9374,0 z m 31.875,0 15.9374,0 0,-5.3125 -15.9374,0 z m 31.875,0 15.9687,0 0,-5.3125 -15.9687,0 z m 31.9062,0 15.9375,0 0,-5.3125 -15.9375,0 z m 31.875,0 15.9688,0 0,-5.3125 -15.9688,0 z"
         style="font-size:medium;font-style:normal;font-variant:normal;font-weight:normal;font-stretch:normal;text-indent:0;text-align:start;text-decoration:none;line-height:normal;letter-spacing:normal;word-spacing:normal;text-transform:none;direction:ltr;block-progression:tb;writing-mode:lr-tb;text-anchor:start;baseline-shift:baseline;color:#000000;fill:#4d3227;fill-opacity:1;fill-rule:nonzero;stroke:none;stroke-width:5.31496047999999988;marker:none;visibility:visible;display:inline;overflow:visible;enable-background:accumulate;font-family:Sans;-inkscape-font-specification:Sans" />
      <path
         inkscape:connector-curvature="0"
         id="path5016-44"
         d="m 36.0625,887.0625 15.9375,0 0,-5.3125 -15.9375,0 z m 31.90625,0 15.9375,0 0,-5.3125 -15.9375,0 z m 31.875,0 15.9375,0 0,-5.3125 -15.9375,0 z m 31.90625,0 15.9375,0 0,-5.3125 -15.9375,0 z m 31.875,0 15.9375,0 0,-5.3125 -15.9375,0 z m 31.90625,0 15.9375,0 0,-5.3125 -15.9375,0 z m 31.875,0 15.9375,0 0,-5.3125 -15.9375,0 z m 31.90625,0 15.9375,0 0,-5.3125 -15.9375,0 z m 31.875,0 15.9375,0 0,-5.3125 -15.9375,0 z m 31.875,0 15.96875,0 0,-5.3125 -15.96875,0 z m 31.90625,0 15.9375,0 0,-5.3125 -15.9375,0 z m 31.875,0 15.96875,0 0,-5.3125 -15.96875,0 z m 31.90625,0 15.9375,0 0,-5.3125 -15.9375,0 z m 31.875,0 15.96875,0 0,-5.3125 -15.96875,0 z m 31.90625,0 15.9375,0 0,-5.3125 -15.9375,0 z m 31.875,0 15.96875,0 0,-5.3125 -15.96875,0 z m 31.90625,0 15.9375,0 0,-5.3125 -15.9375,0 z m 31.875,0 15.96875,0 0,-5.3125 -15.96875,0 z m 31.90625,0 15.9375,0 0,-5.3125 -15.9375,0 z m 31.875,0 15.9375,0 0,-5.3125 -15.9375,0 z m 31.90625,0 15.9375,0 0,-5.3125 -15.9375,0 z m 31.875,0 15.9375,0 0,-5.3125 -15.9375,0 z m 31.90625,0 15.9375,0 0,-5.3125 -15.9375,0 z m 31.875,0 15.9375,0 0,-5.3125 -15.9375,0 z m 31.90625,0 15.9375,0 0,-5.3125 -15.9375,0 z m 31.875,0 15.9375,0 0,-5.3125 -15.9375,0 z m 31.90625,0 15.9375,0 0,-5.3125 -15.9375,0 z m 31.875,0 15.9375,0 0,-5.3125 -15.9375,0 z m 31.875,0 15.96875,0 0,-5.3125 -15.96875,0 z m 31.90625,0 15.9375,0 0,-5.3125 -15.9375,0 z m 31.875,0 15.9688,0 0,-5.3125 -15.9688,0 z m 31.9062,0 15.9376,0 0,-5.3125 -15.9376,0 z m 31.875,0 15.9688,0 0,-5.3125 -15.9688,0 z m 31.9063,0 15.9375,0 0,-5.3125 -15.9375,0 z m 31.875,0 15.9687,0 0,-5.3125 -15.9687,0 z m 31.9063,0 15.9374,0 0,-5.3125 -15.9374,0 z m 31.875,0 15.9374,0 0,-5.3125 -15.9374,0 z m 31.9062,0 15.9375,0 0,-5.3125 -15.9375,0 z m 31.875,0 15.9375,0 0,-5.3125 -15.9375,0 z m 31.9062,0 15.9376,0 0,-5.3125 -15.9376,0 z m 31.875,0 15.9376,0 0,-5.3125 -15.9376,0 z m 31.9063,0 15.9375,0 0,-5.3125 -15.9375,0 z m 31.875,0 15.9375,0 0,-5.3125 -15.9375,0 z m 31.9063,0 15.9374,0 0,-5.3125 -15.9374,0 z m 31.875,0 15.9374,0 0,-5.3125 -15.9374,0 z m 31.875,0 15.9687,0 0,-5.3125 -15.9687,0 z m 31.9062,0 15.9375,0 0,-5.3125 -15.9375,0 z m 31.875,0 15.9688,0 0,-5.3125 -15.9688,0 z"
         style="font-size:medium;font-style:normal;font-variant:normal;font-weight:normal;font-stretch:normal;text-indent:0;text-align:start;text-decoration:none;line-height:normal;letter-spacing:normal;word-spacing:normal;text-transform:none;direction:ltr;block-progression:tb;writing-mode:lr-tb;text-anchor:start;baseline-shift:baseline;color:#000000;fill:#4d3227;fill-opacity:1;fill-rule:nonzero;stroke:none;stroke-width:5.31496047999999988;marker:none;visibility:visible;display:inline;overflow:visible;enable-background:accumulate;font-family:Sans;-inkscape-font-specification:Sans" />
    </g>
    <path
       style="fill:#ebc732;stroke:none"
       d="M 864.78027,245.55618 749.45312,915.63917 C 511.60964,1060.6105 136.16728,1022.0408 18.75,849.4966 L 814.31641,195.063 z"
       id="path5778"
       inkscape:connector-curvature="0"
       sodipodi:nodetypes="ccccc" />
    <path
       style="fill:#83a9be;stroke:none"
       d="M 749.4299,915.61569 864.75845,245.58566 C 1193.879,126.6459 1383.3917,195.32706 1578.1377,350.07295 L 799.99511,966.19094 z"
       id="path5747"
       inkscape:connector-curvature="0"
       sodipodi:nodetypes="ccccc" />
    <flowRoot
       xml:space="preserve"
       id="flowRoot4443"
       style="font-size:40px;font-style:normal;font-weight:normal;line-height:125%;letter-spacing:0px;word-spacing:0px;fill:#4d3227;fill-opacity:1;stroke:none;font-family:Futura Bk BT;-inkscape-font-specification:Futura Bk BT"
       transform="matrix(1.3866835,0,0,1.3866835,964.8715,346.50134)"><flowRegion
         id="flowRegion4445"><rect
           id="rect4447"
           width="655.85583"
           height="461.26126"
           x="70.270271"
           y="230.63063"
           style="fill:#4d3227;fill-opacity:1;font-family:Futura Bk BT;-inkscape-font-specification:Futura Bk BT" /></flowRegion><flowPara
         id="flowPara4451"
         style="font-size:108.17176056px">LAMPE</flowPara></flowRoot>    <flowRoot
       transform="matrix(1.3866835,0,0,1.3866835,13.548229,-6.3001375)"
       xml:space="preserve"
       id="flowRoot4443-6"
       style="font-size:40px;font-style:normal;font-weight:normal;line-height:125%;letter-spacing:0px;word-spacing:0px;fill:#4d3227;fill-opacity:1;stroke:none;font-family:Futura Bk BT;-inkscape-font-specification:Futura Bk BT"><flowRegion
         id="flowRegion4445-3"><rect
           id="rect4447-8"
           width="655.85583"
           height="461.26126"
           x="70.270271"
           y="230.63063"
           style="fill:#4d3227;fill-opacity:1;font-family:Futura Bk BT;-inkscape-font-specification:Futura Bk BT" /></flowRegion><flowPara
         id="flowPara4451-5"
         style="font-size:108.17176056px">EEG</flowPara><flowPara
         id="flowPara4482"
         style="font-size:108.17176056px" /></flowRoot>    <flowRoot
       xml:space="preserve"
       id="flowRoot4484"
       style="font-size:40px;font-style:normal;font-weight:normal;line-height:125%;letter-spacing:0px;word-spacing:0px;fill:#000000;fill-opacity:1;stroke:none;font-family:Bitstream Vera Sans;-inkscape-font-specification:Bookman Uralic"
       transform="matrix(1.25,0,0,1.25,-200,-144.8784)"><flowRegion
         id="flowRegion4486"><rect
           id="rect4488"
           width="818.01801"
           height="221.62163"
           x="-1.8018018"
           y="410.81082" /></flowRegion><flowPara
         id="flowPara4490"></flowPara></flowRoot>    <path
       style="font-size:medium;font-style:normal;font-variant:normal;font-weight:normal;font-stretch:normal;text-indent:0;text-align:start;text-decoration:none;line-height:normal;letter-spacing:normal;word-spacing:normal;text-transform:none;direction:ltr;block-progression:tb;writing-mode:lr-tb;text-anchor:start;baseline-shift:baseline;color:#000000;fill:#f1edcd;fill-opacity:1;fill-rule:nonzero;stroke:none;stroke-width:5.31496047999999988;marker:none;visibility:visible;display:inline;overflow:visible;enable-background:accumulate;font-family:Sans;-inkscape-font-specification:Sans"
       d="M 705.75 291.65625 L 705.75 296.96875 L 721.6875 296.96875 L 721.6875 291.65625 L 705.75 291.65625 z M 737.65625 291.65625 L 737.65625 296.96875 L 753.59375 296.96875 L 753.59375 291.65625 L 737.65625 291.65625 z M 769.53125 291.65625 L 769.53125 296.96875 L 785.46875 296.96875 L 785.46875 291.65625 L 769.53125 291.65625 z M 801.4375 291.65625 L 801.4375 296.96875 L 817.375 296.96875 L 817.375 291.65625 L 801.4375 291.65625 z M 833.3125 291.65625 L 833.3125 296.96875 L 849.25 296.96875 L 849.25 291.65625 L 833.3125 291.65625 z M 865.21875 291.65625 L 865.21875 296.96875 L 881.15625 296.96875 L 881.15625 291.65625 L 865.21875 291.65625 z M 897.09375 291.65625 L 897.09375 296.96875 L 913.03125 296.96875 L 913.03125 291.65625 L 897.09375 291.65625 z M 928.96875 291.65625 L 928.96875 296.96875 L 944.9375 296.96875 L 944.9375 291.65625 L 928.96875 291.65625 z M 960.875 291.65625 L 960.875 296.96875 L 976.8125 296.96875 L 976.8125 291.65625 L 960.875 291.65625 z M 992.75 291.65625 L 992.75 296.96875 L 1008.7188 296.96875 L 1008.7188 291.65625 L 992.75 291.65625 z M 1024.6562 291.65625 L 1024.6562 296.96875 L 1040.5938 296.96875 L 1040.5938 291.65625 L 1024.6562 291.65625 z M 1056.5312 291.65625 L 1056.5312 296.96875 L 1072.5 296.96875 L 1072.5 291.65625 L 1056.5312 291.65625 z M 1088.4375 291.65625 L 1088.4375 296.96875 L 1104.375 296.96875 L 1104.375 291.65625 L 1088.4375 291.65625 z M 1120.3125 291.65625 L 1120.3125 296.96875 L 1136.2812 296.96875 L 1136.2812 291.65625 L 1120.3125 291.65625 z M 1152.2188 291.65625 L 1152.2188 296.96875 L 1168.1562 296.96875 L 1168.1562 291.65625 L 1152.2188 291.65625 z M 1184.0938 291.65625 L 1184.0938 296.96875 L 1200.0312 296.96875 L 1200.0312 291.65625 L 1184.0938 291.65625 z M 1216 291.65625 L 1216 296.96875 L 1231.9375 296.96875 L 1231.9375 291.65625 L 1216 291.65625 z M 1247.875 291.65625 L 1247.875 296.96875 L 1263.8125 296.96875 L 1263.8125 291.65625 L 1247.875 291.65625 z M 1279.7812 291.65625 L 1279.7812 296.96875 L 1295.7188 296.96875 L 1295.7188 291.65625 L 1279.7812 291.65625 z M 1311.6562 291.65625 L 1311.6562 296.96875 L 1327.5938 296.96875 L 1327.5938 291.65625 L 1311.6562 291.65625 z M 1343.5625 291.65625 L 1343.5625 296.96875 L 1359.5 296.96875 L 1359.5 291.65625 L 1343.5625 291.65625 z M 1375.4375 291.65625 L 1375.4375 296.96875 L 1391.375 296.96875 L 1391.375 291.65625 L 1375.4375 291.65625 z M 1407.3438 291.65625 L 1407.3438 296.96875 L 1423.2812 296.96875 L 1423.2812 291.65625 L 1407.3438 291.65625 z M 1439.2188 291.65625 L 1439.2188 296.96875 L 1455.1562 296.96875 L 1455.1562 291.65625 L 1439.2188 291.65625 z M 1471.0938 291.65625 L 1471.0938 296.96875 L 1487.0625 296.96875 L 1487.0625 291.65625 L 1471.0938 291.65625 z M 1503 294.875 L 1503 296.96875 L 1506.0938 296.96875 C 1505.0594 296.27094 1504.0351 295.56729 1503 294.875 z M 354.96875 585.125 L 354.96875 590.4375 L 370.90625 590.4375 L 370.90625 585.125 L 354.96875 585.125 z M 386.84375 585.125 L 386.84375 590.4375 L 402.8125 590.4375 L 402.8125 585.125 L 386.84375 585.125 z M 418.75 585.125 L 418.75 590.4375 L 434.6875 590.4375 L 434.6875 585.125 L 418.75 585.125 z M 450.625 585.125 L 450.625 590.4375 L 466.59375 590.4375 L 466.59375 585.125 L 450.625 585.125 z M 482.53125 585.125 L 482.53125 590.4375 L 498.46875 590.4375 L 498.46875 585.125 L 482.53125 585.125 z M 514.40625 585.125 L 514.40625 590.4375 L 530.375 590.4375 L 530.375 585.125 L 514.40625 585.125 z M 546.3125 585.125 L 546.3125 590.4375 L 562.25 590.4375 L 562.25 585.125 L 546.3125 585.125 z M 578.1875 585.125 L 578.1875 590.4375 L 594.15625 590.4375 L 594.15625 585.125 L 578.1875 585.125 z M 610.09375 585.125 L 610.09375 590.4375 L 626.03125 590.4375 L 626.03125 585.125 L 610.09375 585.125 z M 641.96875 585.125 L 641.96875 590.4375 L 657.90625 590.4375 L 657.90625 585.125 L 641.96875 585.125 z M 673.875 585.125 L 673.875 590.4375 L 689.8125 590.4375 L 689.8125 585.125 L 673.875 585.125 z M 705.75 585.125 L 705.75 590.4375 L 721.6875 590.4375 L 721.6875 585.125 L 705.75 585.125 z M 737.65625 585.125 L 737.65625 590.4375 L 753.59375 590.4375 L 753.59375 585.125 L 737.65625 585.125 z M 769.53125 585.125 L 769.53125 590.4375 L 785.46875 590.4375 L 785.46875 585.125 L 769.53125 585.125 z M 801.4375 585.125 L 801.4375 590.4375 L 817.375 590.4375 L 817.375 585.125 L 801.4375 585.125 z M 833.3125 585.125 L 833.3125 590.4375 L 849.25 590.4375 L 849.25 585.125 L 833.3125 585.125 z M 865.21875 585.125 L 865.21875 590.4375 L 881.15625 590.4375 L 881.15625 585.125 L 865.21875 585.125 z M 897.09375 585.125 L 897.09375 590.4375 L 913.03125 590.4375 L 913.03125 585.125 L 897.09375 585.125 z M 928.96875 585.125 L 928.96875 590.4375 L 944.9375 590.4375 L 944.9375 585.125 L 928.96875 585.125 z M 960.875 585.125 L 960.875 590.4375 L 976.8125 590.4375 L 976.8125 585.125 L 960.875 585.125 z M 992.75 585.125 L 992.75 590.4375 L 1008.7188 590.4375 L 1008.7188 585.125 L 992.75 585.125 z M 1024.6562 585.125 L 1024.6562 590.4375 L 1040.5938 590.4375 L 1040.5938 585.125 L 1024.6562 585.125 z M 1056.5312 585.125 L 1056.5312 590.4375 L 1072.5 590.4375 L 1072.5 585.125 L 1056.5312 585.125 z M 1088.4375 585.125 L 1088.4375 590.4375 L 1104.375 590.4375 L 1104.375 585.125 L 1088.4375 585.125 z M 1120.3125 585.125 L 1120.3125 590.4375 L 1136.2812 590.4375 L 1136.2812 585.125 L 1120.3125 585.125 z M 1152.2188 585.125 L 1152.2188 590.4375 L 1168.1562 590.4375 L 1168.1562 585.125 L 1152.2188 585.125 z M 1184.0938 585.125 L 1184.0938 590.4375 L 1200.0312 590.4375 L 1200.0312 585.125 L 1184.0938 585.125 z M 1216 585.125 L 1216 590.4375 L 1231.9375 590.4375 L 1231.9375 585.125 L 1216 585.125 z M 1247.875 585.125 L 1247.875 590.4375 L 1263.8125 590.4375 L 1263.8125 585.125 L 1247.875 585.125 z M 1279.7812 585.125 L 1279.7812 586.28125 L 1281.25 585.125 L 1279.7812 585.125 z M 339.03125 586.03125 L 333.6875 590.4375 L 339.03125 590.4375 L 339.03125 586.03125 z M 45.125 881.75 C 46.855169 883.53952 48.614621 885.30977 50.40625 887.0625 L 52 887.0625 L 52 881.75 L 45.125 881.75 z M 67.96875 881.75 L 67.96875 887.0625 L 83.90625 887.0625 L 83.90625 881.75 L 67.96875 881.75 z M 99.84375 881.75 L 99.84375 887.0625 L 115.78125 887.0625 L 115.78125 881.75 L 99.84375 881.75 z M 131.75 881.75 L 131.75 887.0625 L 147.6875 887.0625 L 147.6875 881.75 L 131.75 881.75 z M 163.625 881.75 L 163.625 887.0625 L 179.5625 887.0625 L 179.5625 881.75 L 163.625 881.75 z M 195.53125 881.75 L 195.53125 887.0625 L 211.46875 887.0625 L 211.46875 881.75 L 195.53125 881.75 z M 227.40625 881.75 L 227.40625 887.0625 L 243.34375 887.0625 L 243.34375 881.75 L 227.40625 881.75 z M 259.3125 881.75 L 259.3125 887.0625 L 275.25 887.0625 L 275.25 881.75 L 259.3125 881.75 z M 291.1875 881.75 L 291.1875 887.0625 L 307.125 887.0625 L 307.125 881.75 L 291.1875 881.75 z M 323.0625 881.75 L 323.0625 887.0625 L 339.03125 887.0625 L 339.03125 881.75 L 323.0625 881.75 z M 354.96875 881.75 L 354.96875 887.0625 L 370.90625 887.0625 L 370.90625 881.75 L 354.96875 881.75 z M 386.84375 881.75 L 386.84375 887.0625 L 402.8125 887.0625 L 402.8125 881.75 L 386.84375 881.75 z M 418.75 881.75 L 418.75 887.0625 L 434.6875 887.0625 L 434.6875 881.75 L 418.75 881.75 z M 450.625 881.75 L 450.625 887.0625 L 466.59375 887.0625 L 466.59375 881.75 L 450.625 881.75 z M 482.53125 881.75 L 482.53125 887.0625 L 498.46875 887.0625 L 498.46875 881.75 L 482.53125 881.75 z M 514.40625 881.75 L 514.40625 887.0625 L 530.375 887.0625 L 530.375 881.75 L 514.40625 881.75 z M 546.3125 881.75 L 546.3125 887.0625 L 562.25 887.0625 L 562.25 881.75 L 546.3125 881.75 z M 578.1875 881.75 L 578.1875 887.0625 L 594.15625 887.0625 L 594.15625 881.75 L 578.1875 881.75 z M 610.09375 881.75 L 610.09375 887.0625 L 626.03125 887.0625 L 626.03125 881.75 L 610.09375 881.75 z M 641.96875 881.75 L 641.96875 887.0625 L 657.90625 887.0625 L 657.90625 881.75 L 641.96875 881.75 z M 673.875 881.75 L 673.875 887.0625 L 689.8125 887.0625 L 689.8125 881.75 L 673.875 881.75 z M 705.75 881.75 L 705.75 887.0625 L 721.6875 887.0625 L 721.6875 881.75 L 705.75 881.75 z M 737.65625 881.75 L 737.65625 887.0625 L 753.59375 887.0625 L 753.59375 881.75 L 737.65625 881.75 z M 769.53125 881.75 L 769.53125 887.0625 L 785.46875 887.0625 L 785.46875 881.75 L 769.53125 881.75 z M 801.4375 881.75 L 801.4375 887.0625 L 817.375 887.0625 L 817.375 881.75 L 801.4375 881.75 z M 833.3125 881.75 L 833.3125 887.0625 L 849.25 887.0625 L 849.25 881.75 L 833.3125 881.75 z M 865.21875 881.75 L 865.21875 887.0625 L 881.15625 887.0625 L 881.15625 881.75 L 865.21875 881.75 z M 897.09375 881.75 L 897.09375 887.0625 L 899.9375 887.0625 L 906.625 881.75 L 897.09375 881.75 z "
       id="path5016-7" />
    <flowRoot
       xml:space="preserve"
       id="flowRoot4550"
       style="font-size:80px;font-style:normal;font-variant:normal;font-weight:normal;font-stretch:normal;line-height:125%;letter-spacing:0px;word-spacing:0px;fill:#4d3227;fill-opacity:1;stroke:none;font-family:Futura Bk BT;-inkscape-font-specification:Futura Bk BT"
       transform="matrix(0.88388348,-0.88388348,0.88388348,0.88388348,-42.732032,298.87173)"><flowRegion
         id="flowRegion4552"><rect
           id="rect4554"
           width="632.43243"
           height="416.21622"
           x="430.63065"
           y="403.60361"
           style="font-size:80px;fill:#4d3227;fill-opacity:1" /></flowRegion><flowPara
         id="flowPara4556">TECHNIK</flowPara></flowRoot>    <flowRoot
       transform="matrix(0.88388348,-0.88388348,0.88388348,0.88388348,283.68758,932.74648)"
       xml:space="preserve"
       id="flowRoot4443-61"
       style="font-size:80px;font-style:normal;font-weight:normal;line-height:125%;letter-spacing:0px;word-spacing:0px;fill:#4d3227;fill-opacity:1;stroke:none;font-family:Futura Bk BT;-inkscape-font-specification:Futura Bk BT"><flowRegion
         id="flowRegion4445-1"><rect
           id="rect4447-5"
           width="655.85583"
           height="461.26126"
           x="70.270271"
           y="230.63063"
           style="font-size:80px;fill:#4d3227;fill-opacity:1;font-family:Futura Bk BT;-inkscape-font-specification:Futura Bk BT" /></flowRegion><flowPara
         id="flowPara4519">BIOLOGIE</flowPara></flowRoot>  </g>
</svg>
