<?xml version="1.0" encoding="UTF-8" standalone="no"?>
<!-- Created with Inkscape (http://www.inkscape.org/) -->

<svg
   xmlns:dc="http://purl.org/dc/elements/1.1/"
   xmlns:cc="http://creativecommons.org/ns#"
   xmlns:rdf="http://www.w3.org/1999/02/22-rdf-syntax-ns#"
   xmlns:svg="http://www.w3.org/2000/svg"
   xmlns="http://www.w3.org/2000/svg"
   xmlns:xlink="http://www.w3.org/1999/xlink"
   xmlns:sodipodi="http://sodipodi.sourceforge.net/DTD/sodipodi-0.dtd"
   xmlns:inkscape="http://www.inkscape.org/namespaces/inkscape"
   width="1600px"
   height="1200px"
   id="svg10646"
   version="1.1"
   inkscape:version="0.48.1 r9760"
   sodipodi:docname="quellen_from_template_rev4.svg">
  <defs
     id="defs10648">
    <linearGradient
       inkscape:collect="always"
       id="linearGradient12307">
      <stop
         style="stop-color:#4d3227;stop-opacity:1;"
         offset="0"
         id="stop12309" />
      <stop
         style="stop-color:#4d3227;stop-opacity:0;"
         offset="1"
         id="stop12311" />
    </linearGradient>
    <linearGradient
       id="linearGradient12291">
      <stop
         style="stop-color:#f9f6dc;stop-opacity:1;"
         offset="0"
         id="stop12293" />
      <stop
         style="stop-color:#f9f6dc;stop-opacity:0;"
         offset="1"
         id="stop12295" />
    </linearGradient>
    <linearGradient
       inkscape:collect="always"
       xlink:href="#linearGradient12307-8"
       id="linearGradient12313-0"
       x1="715.15515"
       y1="875.59283"
       x2="715.15515"
       y2="1202.3169"
       gradientUnits="userSpaceOnUse"
       gradientTransform="matrix(1,0,0,0.37500002,-8.2862989,681.37479)" />
    <linearGradient
       inkscape:collect="always"
       id="linearGradient12307-8">
      <stop
         style="stop-color:#4d3227;stop-opacity:1;"
         offset="0"
         id="stop12309-9" />
      <stop
         style="stop-color:#4d3227;stop-opacity:0;"
         offset="1"
         id="stop12311-0" />
    </linearGradient>
    <linearGradient
       y2="1202.3169"
       x2="715.15515"
       y1="875.59283"
       x1="715.15515"
       gradientTransform="matrix(1,0,0,0.37500002,-1609.6741,-759.11211)"
       gradientUnits="userSpaceOnUse"
       id="linearGradient12347-3"
       xlink:href="#linearGradient12307-8-4"
       inkscape:collect="always" />
    <linearGradient
       inkscape:collect="always"
       id="linearGradient12307-8-4">
      <stop
         style="stop-color:#4d3227;stop-opacity:1;"
         offset="0"
         id="stop12309-9-8" />
      <stop
         style="stop-color:#4d3227;stop-opacity:0;"
         offset="1"
         id="stop12311-0-5" />
    </linearGradient>
    <linearGradient
       y2="1202.3169"
       x2="715.15515"
       y1="875.59283"
       x1="715.15515"
       gradientTransform="matrix(0.99826838,0,0,0.37500002,-6.8868264,-188.52031)"
       gradientUnits="userSpaceOnUse"
       id="linearGradient12400"
       xlink:href="#linearGradient12307-8-4"
       inkscape:collect="always" />
    <linearGradient
       inkscape:collect="always"
       xlink:href="#linearGradient12307-8"
       id="linearGradient67612"
       gradientUnits="userSpaceOnUse"
       gradientTransform="matrix(1,0,0,0.26771285,-1609.6741,-657.36473)"
       x1="716.90955"
       y1="530.37134"
       x2="716.90955"
       y2="1157.3529" />
    <linearGradient
       inkscape:collect="always"
       xlink:href="#linearGradient12307"
       id="linearGradient67615"
       gradientUnits="userSpaceOnUse"
       gradientTransform="matrix(1,0,0,0.37500002,-8.2862989,595.88846)"
       x1="715.15515"
       y1="875.59283"
       x2="715.15515"
       y2="1202.3169" />
  </defs>
  <sodipodi:namedview
     id="base"
     pagecolor="#ffffff"
     bordercolor="#666666"
     borderopacity="1.0"
     inkscape:pageopacity="0.0"
     inkscape:pageshadow="2"
     inkscape:zoom="0.57"
     inkscape:cx="800"
     inkscape:cy="600"
     inkscape:current-layer="layer1"
     inkscape:document-units="px"
     showgrid="false"
     inkscape:window-width="1438"
     inkscape:window-height="879"
     inkscape:window-x="0"
     inkscape:window-y="19"
     inkscape:window-maximized="1"
     showguides="true"
     inkscape:guide-bbox="true" />
  <metadata
     id="metadata10651">
    <rdf:RDF>
      <cc:Work
         rdf:about="">
        <dc:format>image/svg+xml</dc:format>
        <dc:type
           rdf:resource="http://purl.org/dc/dcmitype/StillImage" />
        <dc:title></dc:title>
      </cc:Work>
    </rdf:RDF>
  </metadata>
  <g
     id="layer1"
     inkscape:label="Layer 1"
     inkscape:groupmode="layer">
    <image
       y="0"
       x="0"
       id="image11256"
       xlink:href="file:///home/jaseg/projects/rgbulb/klq/svg/bg_rev5.png"
       height="1200"
       width="1600" />
    <path
       style="color:#000000;fill:#f9f6dc;fill-opacity:0.41078838;fill-rule:nonzero;stroke:none;stroke-width:5.31496048;marker:none;visibility:visible;display:inline;overflow:visible;enable-background:accumulate"
       d="M -5e-5,-4.0849067e-5 C -5e-5,62.421256 -5e-5,124.84254 -5e-5,187.26384 c 533.33333,0 1066.66665,0 1600.00005,0 0,-62.4213 0,-124.842584 0,-187.263880849067 -533.3334,0 -1066.66672,0 -1600.00005,0 z"
       id="rect7238-3"
       inkscape:connector-curvature="0" />
    <flowRoot
       xml:space="preserve"
       id="flowRoot7728"
       style="font-size:40px;font-style:normal;font-variant:normal;font-weight:normal;font-stretch:normal;line-height:125%;letter-spacing:0px;word-spacing:0px;fill:#4d3227;fill-opacity:1;stroke:none;font-family:Futura Bk BT;-inkscape-font-specification:Futura Bk BT"
       transform="matrix(2.3221221,0,0,2.3221221,-109.96348,-1.1325499)"><flowRegion
         id="flowRegion7730"><rect
           id="rect7732"
           width="1234.2343"
           height="131.53152"
           x="322.52252"
           y="14.414414"
           style="fill:#4d3227;fill-opacity:1" /></flowRegion><flowPara
         id="flowPara7734">Quellen</flowPara></flowRoot>    <rect
       style="opacity:0.77405856;color:#000000;fill:url(#linearGradient12400);fill-opacity:1;fill-rule:nonzero;stroke:none;stroke-width:5.31496048;marker:none;visibility:visible;display:inline;overflow:visible;enable-background:accumulate"
       id="rect12289-1-8"
       width="1600"
       height="55.188824"
       x="0"
       y="207.1532" />
    <g
       id="g67629">
      <g
         transform="translate(0,-114.83253)"
         id="g67622">
        <rect
           style="color:#000000;fill:#f9f6dc;fill-opacity:0.41078838;fill-rule:nonzero;stroke:none;stroke-width:5.31496048;marker:none;visibility:visible;display:inline;overflow:visible;enable-background:accumulate"
           id="rect12287"
           width="1600"
           height="616.66895"
           x="0"
           y="489.72559"
           rx="0"
           ry="0" />
        <flowRoot
           xml:space="preserve"
           id="flowRoot7728-0"
           style="font-size:40px;font-style:normal;font-variant:normal;font-weight:normal;font-stretch:normal;line-height:125%;letter-spacing:0px;word-spacing:0px;fill:#4d3227;fill-opacity:1;stroke:none;font-family:Futura Bk BT;-inkscape-font-specification:Futura Bk BT"
           transform="matrix(1.9674929,0,0,1.9674929,-481.5567,500.64333)"><flowRegion
             id="flowRegion7730-1"><rect
               id="rect7732-3"
               width="680.65942"
               height="299.57382"
               x="322.52252"
               y="14.414414"
               style="fill:#4d3227;fill-opacity:1" /></flowRegion><flowPara
             id="flowPara7734-7"
             style="font-size:30.49566269px">Die LED-Kennlinien sind aus dem &quot;Technical Datasheet for W724C0&quot; Rev. 01 von Seoul Semiconductor entnommen und überarbeitet. Alle sonstigen Bilder sind entweder Eigenkreationen oder Wikipedia DE oder EN entnommen und überarbeitet worden. Stand: 27. Juni 2011.</flowPara><flowPara
             style="font-size:30.49566269px"
             id="flowPara82331">Für Einzelheiten stehe ich gerne zur Verfügung.</flowPara></flowRoot>      </g>
      <rect
         y="991.56201"
         x="-1.3876953"
         height="55.188824"
         width="1602.7754"
         id="rect12289"
         style="opacity:0.77405856;color:#000000;fill:url(#linearGradient67615);fill-opacity:1;fill-rule:nonzero;stroke:none;stroke-width:5.31496048;marker:none;visibility:visible;display:inline;overflow:visible;enable-background:accumulate" />
      <rect
         transform="scale(-1,-1)"
         y="-374.89304"
         x="-1602.7754"
         height="39.399349"
         width="1602.7754"
         id="rect12289-1"
         style="opacity:0.33472805;color:#000000;fill:url(#linearGradient67612);fill-opacity:1;fill-rule:nonzero;stroke:none;stroke-width:5.31496048;marker:none;visibility:visible;display:inline;overflow:visible;enable-background:accumulate" />
    </g>
    <g
       id="g13555"
       transform="translate(8.884253,974.73706)"
       style="fill:#4d3227;fill-opacity:1">
      <flowRoot
         transform="matrix(0.77771651,0,0,0.77771651,790.15789,68.56118)"
         style="font-size:40px;font-style:normal;font-variant:normal;font-weight:normal;font-stretch:normal;line-height:125%;letter-spacing:0px;word-spacing:0px;fill:#4d3227;fill-opacity:1;stroke:none;font-family:Futura Bk BT;-inkscape-font-specification:Futura Bk BT"
         id="flowRoot12528"
         xml:space="preserve"><flowRegion
           id="flowRegion12530"><rect
             style="fill:#4d3227;fill-opacity:1"
             y="143.36401"
             x="427.71338"
             height="193.16087"
             width="868.07416"
             id="rect12532" /></flowRegion><flowPara
           id="flowPara12534">Jan Sebastian Götte im Juni 2011</flowPara></flowRoot>      <g
         style="fill:#4d3227;fill-opacity:1"
         transform="matrix(0.96319308,0,0,0.96319308,505.61823,-799.28625)"
         id="g5930">
        <g
           style="fill:#4d3227;fill-opacity:1;display:inline"
           inkscape:label="Dessin"
           id="layer3"
           transform="matrix(0.39152482,0,0,0.39152482,578.97172,1024.7633)">
          <path
             inkscape:connector-curvature="0"
             id="path1334"
             d="M 31.1875,0 C 13.904525,0.43835438 0,14.612004 0,32 0,49.663996 14.336004,64 32,64 49.663996,64 64,49.663996 64,32 64,14.336004 49.663996,0 32,0 31.724,0 31.461833,-0.00695801 31.1875,0 z M 31.15625,5.5 C 31.439783,5.49101 31.714297,5.5 32,5.5 46.628003,5.4999998 58.5,17.371998 58.5,32 58.499998,46.628001 46.628002,58.5 32,58.5 17.371999,58.499999 5.5,46.628002 5.5,32 5.4999999,17.657701 16.922915,5.9512829 31.15625,5.5 z"
             style="fill:#4d3227;fill-opacity:1;fill-rule:nonzero;stroke:none" />
          <g
             style="fill:#4d3227;fill-opacity:1"
             id="g6525">
            <path
               sodipodi:type="arc"
               style="fill:#4d3227;fill-opacity:1;fill-rule:evenodd;stroke:none"
               id="path2838"
               sodipodi:cx="32.0625"
               sodipodi:cy="15.75"
               sodipodi:rx="4.625"
               sodipodi:ry="4.625"
               d="m 36.6875,15.75 c 0,2.554317 -2.070683,4.625 -4.625,4.625 -2.554317,0 -4.625,-2.070683 -4.625,-4.625 0,-2.554317 2.070683,-4.625 4.625,-4.625 2.554317,0 4.625,2.070683 4.625,4.625 z"
               transform="translate(-0.0625,0.185547)" />
            <path
               inkscape:connector-curvature="0"
               id="path3572"
               style="fill:#4d3227;fill-opacity:1;fill-rule:evenodd;stroke:none"
               d="m 27.215125,52.689453 9.56975,0 0,-15.378905 2.893008,0 c 0,0 -0.0011,-10.990367 0,-12.720111 -0.0028,-0.456306 0.04119,-1.365057 -0.620739,-2.026989 -0.661932,-0.661932 -1.555399,-0.621804 -2.02699,-0.620739 -0.47159,0.0011 -9.588717,0.0011 -10.060308,0 -0.471591,-0.0011 -1.365057,-0.04119 -2.026989,0.620739 -0.661933,0.661932 -0.617898,1.570683 -0.620739,2.026989 0.0011,1.729744 0,12.720111 0,12.720111 l 2.893007,0 0,15.378905 z"
               sodipodi:nodetypes="ccccssccssccc" />
          </g>
        </g>
        <g
           style="fill:#4d3227;fill-opacity:1"
           id="g5577"
           transform="matrix(0.39152482,0,0,0.39152482,607.78434,1024.7633)">
          <path
             inkscape:connector-curvature="0"
             id="path1334-2"
             d="M 31.1875,0 C 13.904525,0.43835438 0,14.612004 0,32 0,49.663996 14.336004,64 32,64 49.663996,64 64,49.663996 64,32 64,14.336004 49.663996,0 32,0 31.724,0 31.461833,-0.00695801 31.1875,0 z M 31.15625,5.5 C 31.439783,5.49101 31.714297,5.5 32,5.5 46.628003,5.4999998 58.5,17.371998 58.5,32 58.499998,46.628001 46.628002,58.5 32,58.5 17.371999,58.499999 5.5,46.628002 5.5,32 5.4999999,17.657701 16.922915,5.9512829 31.15625,5.5 z"
             style="fill:#4d3227;fill-opacity:1;fill-rule:nonzero;stroke:none" />
          <path
             inkscape:connector-curvature="0"
             sodipodi:nodetypes="cccccssssccsssssc"
             id="path2371"
             d="m 18.115779,26.784547 -2.740778,0 6.21875,6.96875 6.21875,-6.96875 -2.243852,0 c 0.486099,-3.3998 3.476871,-5.586425 6.931352,-5.3125 0.136556,0.01083 0.267854,0 0.40625,0 5.62743,0 7.84682,4.255865 8.03125,10.53125 0.19247,6.549199 -3.60349,10.620376 -8.03125,10.53125 -4.673386,-0.09221 -6.444049,-2.32751 -7.125,-5.71875 l -8.34375,0 c 1.373177,7.811231 7.123855,12.392036 15.28125,12.40625 9.23458,0.01625 15.906248,-7.709347 15.906248,-17.21875 0,-10.154893 -6.669368,-17.21875 -15.906248,-17.21875 -0.274244,0 -0.541652,-0.01489 -0.8125,0 -0.0656,0.0036 -0.12197,-0.0011 -0.1875,0 -5.772209,0.09597 -13.602929,4.139742 -13.602972,12 z"
             style="fill:#4d3227;fill-opacity:1;fill-rule:nonzero;stroke:none" />
        </g>
        <g
           style="fill:#4d3227;fill-opacity:1"
           id="g5808"
           transform="matrix(0.44744999,0,0,0.4468506,394.45738,527.95119)">
          <path
             inkscape:connector-curvature="0"
             id="path49-4"
             style="fill:#4d3227;fill-opacity:1;fill-rule:evenodd"
             d="m 375.93753,1111.8056 c -7.68196,0 -14.44196,2.8429 -19.66591,8.143 -5.37702,5.4549 -8.29603,12.5219 -8.29603,19.8968 0,7.4511 2.84203,14.365 8.21994,19.7429 5.37702,5.377 12.36795,8.296 19.742,8.296 7.37406,0 14.51895,-2.919 20.04993,-8.373 5.22395,-5.1469 7.989,-11.9839 7.989,-19.6659 0,-7.605 -2.76505,-14.5189 -8.06598,-19.8199 -5.37703,-5.377 -12.29098,-8.2199 -19.97295,-8.2199 z m 0.077,5.0709 c 6.29901,0 11.90697,2.381 16.28592,6.76 4.30109,4.302 6.60603,9.9869 6.60603,16.2089 0,6.299 -2.22796,11.83 -6.52993,16.0559 -4.53292,4.455 -10.37093,6.837 -16.3629,6.837 -6.06895,0 -11.75389,-2.3811 -16.13196,-6.76 -4.37895,-4.3799 -6.83697,-10.1409 -6.83697,-16.1329 0,-6.0689 2.45802,-11.83 6.83697,-16.2859 4.30197,-4.3781 9.83384,-6.683 16.13284,-6.683 z" />
          <path
             inkscape:connector-curvature="0"
             id="path51-2"
             style="fill:#4d3227;fill-opacity:1;fill-rule:evenodd"
             d="m 375.65262,1135.186 c -1.58382,-2.8881 -4.28604,-4.0374 -7.42271,-4.0374 -4.56565,0 -8.19959,3.2295 -8.19959,8.6968 0,5.5593 3.41627,8.6969 8.35531,8.6969 3.16853,0 5.86987,-1.7396 7.36078,-4.379 l -3.47909,-1.7705 c -0.77687,1.8634 -1.95633,2.4226 -3.44724,2.4226 -2.57836,0 -3.75781,-2.143 -3.75781,-4.9691 0,-2.8261 0.99364,-4.97 3.75781,-4.97 0.74501,0 2.23593,0.4044 3.1057,2.2669 l 3.72684,-1.9572 z" />
          <path
             inkscape:connector-curvature="0"
             id="path53-2"
             style="fill:#4d3227;fill-opacity:1;fill-rule:evenodd"
             d="m 391.82882,1135.186 c -1.5847,-2.8881 -4.28604,-4.0374 -7.42271,-4.0374 -4.56565,0 -8.20048,3.2295 -8.20048,8.6968 0,5.5593 3.41716,8.6969 8.35532,8.6969 3.16852,0 5.86987,-1.7396 7.36078,-4.379 l -3.4791,-1.7705 c -0.77598,1.8634 -1.95632,2.4226 -3.44724,2.4226 -2.57747,0 -3.75869,-2.143 -3.75869,-4.9691 0,-2.8261 0.99453,-4.97 3.75869,-4.97 0.74502,0 2.23593,0.4044 3.10659,2.2669 l 3.72684,-1.9572 z" />
        </g>
      </g>
    </g>
    <g
       id="g67540"
       transform="matrix(0.93363023,0,0,1,106.19158,0)">
      <rect
         y="187.26384"
         x="314.69461"
         height="19.88936"
         width="428.43512"
         id="rect6292-1"
         style="color:#000000;fill:#7ba9c6;fill-opacity:1;fill-rule:nonzero;stroke:none;stroke-width:5.31496048;marker:none;visibility:visible;display:inline;overflow:visible;enable-background:accumulate" />
      <rect
         y="187.26384"
         x="743.1297"
         height="19.88936"
         width="428.43512"
         id="rect6292-1-3"
         style="color:#000000;fill:#52753f;fill-opacity:1;fill-rule:nonzero;stroke:none;stroke-width:5.31496048;marker:none;visibility:visible;display:inline;overflow:visible;enable-background:accumulate" />
      <rect
         y="187.26384"
         x="1171.5649"
         height="19.88936"
         width="428.43512"
         id="rect6292-1-2"
         style="color:#000000;fill:#f5ce32;fill-opacity:1;fill-rule:nonzero;stroke:none;stroke-width:5.31496048;marker:none;visibility:visible;display:inline;overflow:visible;enable-background:accumulate" />
      <rect
         y="187.26384"
         x="-113.74051"
         height="19.8894"
         width="428.43512"
         id="rect6373-6"
         style="color:#000000;fill:#930c08;fill-opacity:1;fill-rule:nonzero;stroke:none;stroke-width:5.31496048;marker:none;visibility:visible;display:inline;overflow:visible;enable-background:accumulate" />
    </g>
  </g>
</svg>
